<?xml version="1.0" encoding="UTF-8"?> <svg xmlns="http://www.w3.org/2000/svg" width="404" height="404" viewBox="0 0 404 404" fill="none"><path d="M123.439 169.764L201.83 91.3101L280.262 169.806L325.875 124.154L201.83 0L77.8257 124.112L123.439 169.764Z" fill="#F2B80C"></path><path d="M91.2271 201.993L45.6146 156.342L-5.66713e-05 201.995L45.6124 247.646L91.2271 201.993Z" fill="#F2B80C"></path><path d="M123.439 234.236L201.83 312.69L280.259 234.198L325.898 279.824L325.875 279.849L201.83 404L77.8224 279.891L77.7587 279.827L123.439 234.236Z" fill="#F2B80C"></path><path d="M358.049 247.668L403.664 202.014L358.052 156.363L312.437 202.017L358.049 247.668Z" fill="#F2B80C"></path><path d="M248.097 201.976H248.116L201.83 155.651L167.624 189.886H167.621L163.693 193.82L155.585 201.935L155.521 201.998L155.585 202.065L201.83 248.349L248.116 202.024L248.138 201.998L248.097 201.976Z" fill="#F2B80C"></path></svg> 