<?xml version="1.0" encoding="UTF-8"?> <svg xmlns="http://www.w3.org/2000/svg" width="1180" height="237" viewBox="0 0 1180 237" fill="none"><g clip-path="url(#clip0_5_323)"><path d="M71.267 99.5894L117.174 53.5656L163.105 99.6137L189.817 72.8328L117.174 0L44.5552 72.8085L71.267 99.5894Z" fill="#FFD97D"></path><path d="M52.4033 118.496L25.6919 91.7153L-1.0208 118.497L25.6906 145.278L52.4033 118.496Z" fill="#FFD97D"></path><path d="M71.2669 137.411L117.174 183.434L163.103 137.388L189.83 164.154L189.817 164.169L117.174 237L44.5532 164.193L44.5159 164.156L71.2669 137.411Z" fill="#FFD97D"></path><path d="M208.659 145.29L235.371 118.508L208.66 91.7278L181.947 118.51L208.659 145.29Z" fill="#FFD97D"></path><path d="M144.269 118.486H144.28L117.174 91.3101L97.1425 111.393H97.1406L94.8404 113.701L90.0925 118.462L90.0552 118.499L90.0925 118.538L117.174 145.69L144.28 118.514L144.293 118.499L144.269 118.486Z" fill="#FFD97D"></path><path d="M277.014 57.4272H335.111C349.53 57.4272 360.433 61.1373 367.823 68.5574C373.542 74.3041 376.4 81.4266 376.4 89.923V90.2824C376.4 93.8727 375.958 97.0455 375.067 99.7971C374.179 102.553 372.991 105.033 371.507 107.247C370.026 109.464 368.305 111.408 366.348 113.082C364.39 114.759 362.285 116.197 360.032 117.391C367.28 120.146 372.986 123.884 377.145 128.613C381.303 133.343 383.385 139.896 383.385 148.273V148.631C383.385 154.377 382.283 159.403 380.078 163.714C377.873 168.021 374.714 171.614 370.601 174.487C366.488 177.36 361.542 179.513 355.762 180.95C349.982 182.386 343.576 183.103 336.546 183.103H277.014V57.4272ZM329.302 108.236C335.393 108.236 340.228 107.191 343.807 105.095C347.388 103 349.179 99.6174 349.179 94.9509V94.5915C349.179 90.4041 347.625 87.2032 344.522 84.9869C341.417 82.7724 336.94 81.6643 331.093 81.6643H303.873V108.236H329.302ZM336.645 158.868C342.734 158.868 347.506 157.764 350.971 155.547C354.433 153.333 356.165 149.89 356.165 145.222V144.864C356.165 140.675 354.552 137.354 351.33 134.899C348.105 132.448 342.913 131.22 335.749 131.22H303.873V158.87L336.645 158.868Z" fill="#FFD97D"></path><path d="M417.985 57.4272H445.565V183.107H417.985V57.4272Z" fill="#FFD97D"></path><path d="M487.337 57.4272H512.762L571.501 134.811V57.4272H598.721V183.107H575.263L514.554 103.211V183.107H487.337V57.4272Z" fill="#FFD97D"></path><path d="M682.215 56.5305H707.643L761.369 183.107H732.536L721.074 154.92H668.067L656.607 183.107H628.487L682.215 56.5305ZM711.226 130.5L694.57 89.7451L677.919 130.5H711.226Z" fill="#FFD97D"></path><path d="M791.139 57.4272H816.57L875.305 134.811V57.4272H902.525V183.107H879.068L818.359 103.211V183.107H791.139V57.4272Z" fill="#FFD97D"></path><path d="M1001.78 185.259C992.58 185.259 984.048 183.582 976.167 180.233C968.286 176.885 961.483 172.304 955.753 166.498C950.021 160.693 945.542 153.84 942.323 145.941C939.099 138.04 937.487 129.601 937.487 120.624V120.266C937.487 111.289 939.099 102.882 942.323 95.0407C945.544 87.2013 950.021 80.3184 955.753 74.3939C961.481 68.4694 968.348 63.7991 976.344 60.3885C984.341 56.978 993.181 55.2727 1002.85 55.2727C1008.7 55.2727 1014.04 55.7538 1018.87 56.7084C1023.71 57.6687 1028.1 58.9828 1032.04 60.6581C1035.98 62.3353 1039.62 64.37 1042.96 66.7623C1046.3 69.1583 1049.41 71.7901 1052.27 74.6635L1034.73 94.9508C1029.83 90.5239 1024.84 87.0497 1019.77 84.5376C1014.7 82.0255 1009 80.7676 1002.67 80.7676C997.416 80.7676 992.55 81.7859 988.077 83.8207C983.6 85.8554 979.748 88.667 976.524 92.2572C973.303 95.8475 970.795 100.009 969.001 104.735C967.214 109.465 966.32 114.521 966.32 119.907V120.264C966.32 125.65 967.214 130.739 969.001 135.524C970.795 140.314 973.267 144.501 976.436 148.092C979.597 151.682 983.419 154.527 987.894 156.622C992.375 158.718 997.298 159.763 1002.67 159.763C1009.84 159.763 1015.89 158.447 1020.84 155.813C1025.8 153.183 1030.73 149.591 1035.62 145.04L1053.17 162.816C1049.95 166.288 1046.6 169.401 1043.14 172.151C1039.68 174.906 1035.89 177.268 1031.77 179.245C1027.65 181.218 1023.14 182.717 1018.25 183.732C1013.35 184.748 1007.86 185.259 1001.78 185.259Z" fill="#FFD97D"></path><path d="M1085.63 57.4272H1180V82.0256H1112.85V107.52H1171.94V132.117H1112.85V158.51H1180.9V183.107H1085.63V57.4272Z" fill="#FFD97D"></path></g><defs><clipPath id="clip0_5_323"><rect width="1180" height="237" fill="white"></rect></clipPath></defs></svg> 