<svg xmlns="http://www.w3.org/2000/svg" xmlns:xlink="http://www.w3.org/1999/xlink" width="150" zoomAndPan="magnify" viewBox="0 0 112.5 30.000001" height="40" preserveAspectRatio="xMidYMid meet" version="1.0"><defs><g/><clipPath id="69f5c19d8c"><path d="M 2 0 L 110.445312 0 L 110.445312 29.03125 L 2 29.03125 Z M 2 0 " clip-rule="nonzero"/></clipPath><clipPath id="697c62743f"><path d="M 1 0 L 17 0 L 17 20 L 1 20 Z M 1 0 " clip-rule="nonzero"/></clipPath><clipPath id="7599af2013"><path d="M 15 0 L 36 0 L 36 20 L 15 20 Z M 15 0 " clip-rule="nonzero"/></clipPath><clipPath id="ecd4f533fa"><path d="M 36 0 L 42 0 L 42 20 L 36 20 Z M 36 0 " clip-rule="nonzero"/></clipPath><clipPath id="994d8cbaf2"><rect x="0" width="109" y="0" height="30"/></clipPath></defs><g clip-path="url(#69f5c19d8c)"><g transform="matrix(1, 0, 0, 1, 2, 0.000000000000005692)"><g clip-path="url(#994d8cbaf2)"><g clip-path="url(#697c62743f)"><g fill="#f2b80c" fill-opacity="1"><g transform="translate(0.497948, 19.305848)"><g><path d="M 1.453125 -20.0625 L 7.6875 -20.0625 C 9.5625 -20.0625 11.054688 -19.660156 12.171875 -18.859375 C 13.296875 -18.054688 13.859375 -16.753906 13.859375 -14.953125 C 13.859375 -12.941406 13.023438 -11.507812 11.359375 -10.65625 C 14.210938 -10.144531 15.640625 -8.457031 15.640625 -5.59375 C 15.640625 -3.90625 15.050781 -2.550781 13.875 -1.53125 C 12.707031 -0.507812 11.101562 0 9.0625 0 L 1.453125 0 Z M 6.03125 -12.203125 L 6.390625 -12.203125 C 7.410156 -12.203125 8.171875 -12.378906 8.671875 -12.734375 C 9.179688 -13.097656 9.4375 -13.679688 9.4375 -14.484375 C 9.4375 -15.847656 8.421875 -16.53125 6.390625 -16.53125 L 6.03125 -16.53125 Z M 6.03125 -3.53125 L 7.46875 -3.53125 C 9.695312 -3.53125 10.8125 -4.273438 10.8125 -5.765625 C 10.8125 -6.648438 10.53125 -7.285156 9.96875 -7.671875 C 9.414062 -8.066406 8.582031 -8.265625 7.46875 -8.265625 L 6.03125 -8.265625 Z M 6.03125 -3.53125 "/></g></g></g></g><g clip-path="url(#7599af2013)"><g fill="#f2b80c" fill-opacity="1"><g transform="translate(16.206194, 19.305848)"><g><path d="M 11.640625 -20.0625 L 19.734375 0 L 14.828125 0 L 13.34375 -4.015625 L 5.71875 -4.015625 L 4.234375 0 L -0.6875 0 L 7.421875 -20.0625 Z M 11.796875 -8.015625 L 9.5625 -13.859375 L 9.5 -13.859375 L 7.265625 -8.015625 Z M 11.796875 -8.015625 "/></g></g></g></g><g clip-path="url(#ecd4f533fa)"><g fill="#f2b80c" fill-opacity="1"><g transform="translate(35.270095, 19.305848)"><g><path d="M 6.03125 -20.0625 L 6.03125 0 L 1.453125 0 L 1.453125 -20.0625 Z M 6.03125 -20.0625 "/></g></g></g></g><g fill="#f2b80c" fill-opacity="1"><g transform="translate(42.759492, 19.305848)"><g/></g></g><g fill="#f2b80c" fill-opacity="1"><g transform="translate(49.397801, 19.305848)"><g><path d="M 0.90625 3.0625 L 4.421875 1.34375 C 5.066406 2.40625 6.191406 2.9375 7.796875 2.9375 C 8.546875 2.9375 9.238281 2.695312 9.875 2.21875 C 10.519531 1.738281 10.84375 1.007812 10.84375 0.03125 L 10.84375 -0.90625 C 10.082031 -0.0625 8.722656 0.359375 6.765625 0.359375 C 4.960938 0.359375 3.476562 -0.273438 2.3125 -1.546875 C 1.144531 -2.816406 0.5625 -4.375 0.5625 -6.21875 C 0.5625 -8.070312 1.144531 -9.640625 2.3125 -10.921875 C 3.476562 -12.203125 4.960938 -12.84375 6.765625 -12.84375 C 8.367188 -12.84375 9.703125 -12.347656 10.765625 -11.359375 L 10.84375 -11.359375 L 10.84375 -12.46875 L 15.140625 -12.46875 L 15.140625 0.34375 C 15.140625 2.363281 14.46875 3.925781 13.125 5.03125 C 11.78125 6.132812 10.003906 6.6875 7.796875 6.6875 C 4.234375 6.6875 1.9375 5.476562 0.90625 3.0625 Z M 5.96875 -8.34375 C 5.40625 -7.789062 5.125 -7.082031 5.125 -6.21875 C 5.125 -5.363281 5.390625 -4.664062 5.921875 -4.125 C 6.460938 -3.582031 7.171875 -3.3125 8.046875 -3.3125 C 8.890625 -3.3125 9.582031 -3.582031 10.125 -4.125 C 10.664062 -4.675781 10.9375 -5.375 10.9375 -6.21875 C 10.9375 -7.082031 10.65625 -7.789062 10.09375 -8.34375 C 9.539062 -8.894531 8.859375 -9.171875 8.046875 -9.171875 C 7.222656 -9.171875 6.53125 -8.894531 5.96875 -8.34375 Z M 5.96875 -8.34375 "/></g></g></g><g fill="#f2b80c" fill-opacity="1"><g transform="translate(65.884197, 19.305848)"><g><path d="M 14.078125 -5.640625 L 5.03125 -5.640625 C 5.03125 -4.765625 5.3125 -4.113281 5.875 -3.6875 C 6.445312 -3.269531 7.066406 -3.0625 7.734375 -3.0625 C 8.429688 -3.0625 8.984375 -3.15625 9.390625 -3.34375 C 9.796875 -3.53125 10.253906 -3.898438 10.765625 -4.453125 L 13.875 -2.890625 C 12.582031 -0.722656 10.429688 0.359375 7.421875 0.359375 C 5.535156 0.359375 3.921875 -0.28125 2.578125 -1.5625 C 1.234375 -2.851562 0.5625 -4.40625 0.5625 -6.21875 C 0.5625 -8.039062 1.234375 -9.597656 2.578125 -10.890625 C 3.921875 -12.191406 5.535156 -12.84375 7.421875 -12.84375 C 9.390625 -12.84375 10.992188 -12.269531 12.234375 -11.125 C 13.472656 -9.976562 14.09375 -8.34375 14.09375 -6.21875 C 14.09375 -5.925781 14.085938 -5.734375 14.078125 -5.640625 Z M 5.15625 -8.015625 L 9.890625 -8.015625 C 9.796875 -8.671875 9.539062 -9.171875 9.125 -9.515625 C 8.71875 -9.867188 8.1875 -10.046875 7.53125 -10.046875 C 6.820312 -10.046875 6.253906 -9.859375 5.828125 -9.484375 C 5.410156 -9.109375 5.1875 -8.617188 5.15625 -8.015625 Z M 5.15625 -8.015625 "/></g></g></g><g fill="#f2b80c" fill-opacity="1"><g transform="translate(80.498235, 19.305848)"><g><path d="M 1.453125 0 L 1.453125 -12.46875 L 5.765625 -12.46875 L 5.765625 -11.15625 L 5.8125 -11.15625 C 6.925781 -12.28125 8.117188 -12.84375 9.390625 -12.84375 C 10.003906 -12.84375 10.613281 -12.757812 11.21875 -12.59375 C 11.820312 -12.425781 12.40625 -12.171875 12.96875 -11.828125 C 13.53125 -11.492188 13.984375 -11.015625 14.328125 -10.390625 C 14.679688 -9.765625 14.859375 -9.039062 14.859375 -8.21875 L 14.859375 0 L 10.546875 0 L 10.546875 -7.046875 C 10.546875 -7.691406 10.335938 -8.257812 9.921875 -8.75 C 9.515625 -9.238281 8.976562 -9.484375 8.3125 -9.484375 C 7.664062 -9.484375 7.078125 -9.226562 6.546875 -8.71875 C 6.023438 -8.21875 5.765625 -7.660156 5.765625 -7.046875 L 5.765625 0 Z M 1.453125 0 "/></g></g></g><g fill="#f2b80c" fill-opacity="1"><g transform="translate(96.425329, 19.305848)"><g><path d="M 2.1875 -12.46875 L 2.1875 -17.109375 L 6.484375 -17.109375 L 6.484375 -12.46875 L 9.109375 -12.46875 L 9.109375 -9.1875 L 6.484375 -9.1875 L 6.484375 -5.234375 C 6.484375 -4.078125 6.8125 -3.5 7.46875 -3.5 C 7.625 -3.5 7.789062 -3.53125 7.96875 -3.59375 C 8.144531 -3.664062 8.285156 -3.734375 8.390625 -3.796875 L 8.53125 -3.890625 L 9.609375 -0.40625 C 8.679688 0.101562 7.625 0.359375 6.4375 0.359375 C 5.632812 0.359375 4.941406 0.21875 4.359375 -0.0625 C 3.773438 -0.34375 3.332031 -0.722656 3.03125 -1.203125 C 2.726562 -1.679688 2.507812 -2.179688 2.375 -2.703125 C 2.25 -3.234375 2.1875 -3.800781 2.1875 -4.40625 L 2.1875 -9.1875 L 0.390625 -9.1875 L 0.390625 -12.46875 Z M 2.1875 -12.46875 "/></g></g></g></g></g></g></svg>