<svg xmlns="http://www.w3.org/2000/svg" xmlns:xlink="http://www.w3.org/1999/xlink" width="150" zoomAndPan="magnify" viewBox="0 0 112.5 30.000001" height="40" preserveAspectRatio="xMidYMid meet" version="1.0"><defs><g/><clipPath id="1f61c456a5"><path d="M 1.574219 2 L 110.445312 2 L 110.445312 29.03125 L 1.574219 29.03125 Z M 1.574219 2 " clip-rule="nonzero"/></clipPath><clipPath id="4aa4ca0516"><rect x="0" width="110" y="0" height="28"/></clipPath></defs><g clip-path="url(#1f61c456a5)"><g transform="matrix(1, 0, 0, 1, 1, 2)"><g clip-path="url(#4aa4ca0516)"><g fill="#f2b80c" fill-opacity="1"><g transform="translate(-0.0973095, 19.676369)"><g><path d="M 1.234375 -16.921875 L 6.484375 -16.921875 C 8.066406 -16.921875 9.328125 -16.582031 10.265625 -15.90625 C 11.210938 -15.226562 11.6875 -14.128906 11.6875 -12.609375 C 11.6875 -10.921875 10.984375 -9.710938 9.578125 -8.984375 C 11.984375 -8.554688 13.1875 -7.132812 13.1875 -4.71875 C 13.1875 -3.289062 12.691406 -2.144531 11.703125 -1.28125 C 10.722656 -0.425781 9.375 0 7.65625 0 L 1.234375 0 Z M 5.09375 -10.296875 L 5.390625 -10.296875 C 6.253906 -10.296875 6.894531 -10.445312 7.3125 -10.75 C 7.738281 -11.050781 7.953125 -11.546875 7.953125 -12.234375 C 7.953125 -13.378906 7.097656 -13.953125 5.390625 -13.953125 L 5.09375 -13.953125 Z M 5.09375 -2.96875 L 6.296875 -2.96875 C 8.179688 -2.96875 9.125 -3.597656 9.125 -4.859375 C 9.125 -5.609375 8.890625 -6.144531 8.421875 -6.46875 C 7.953125 -6.800781 7.242188 -6.96875 6.296875 -6.96875 L 5.09375 -6.96875 Z M 5.09375 -2.96875 "/></g></g></g><g fill="#f2b80c" fill-opacity="1"><g transform="translate(13.157548, 19.676369)"><g><path d="M 9.828125 -16.921875 L 16.65625 0 L 12.515625 0 L 11.265625 -3.390625 L 4.828125 -3.390625 L 3.5625 0 L -0.578125 0 L 6.25 -16.921875 Z M 9.953125 -6.765625 L 8.0625 -11.6875 L 8.015625 -11.6875 L 6.140625 -6.765625 Z M 9.953125 -6.765625 "/></g></g></g><g fill="#f2b80c" fill-opacity="1"><g transform="translate(29.243958, 19.676369)"><g><path d="M 5.09375 -16.921875 L 5.09375 0 L 1.234375 0 L 1.234375 -16.921875 Z M 5.09375 -16.921875 "/></g></g></g><g fill="#f2b80c" fill-opacity="1"><g transform="translate(35.563626, 19.676369)"><g><path d="M 9.828125 -16.921875 L 16.65625 0 L 12.515625 0 L 11.265625 -3.390625 L 4.828125 -3.390625 L 3.5625 0 L -0.578125 0 L 6.25 -16.921875 Z M 9.953125 -6.765625 L 8.0625 -11.6875 L 8.015625 -11.6875 L 6.140625 -6.765625 Z M 9.953125 -6.765625 "/></g></g></g><g fill="#f2b80c" fill-opacity="1"><g transform="translate(51.650036, 19.676369)"><g><path d="M 16.53125 -9.484375 L 16.53125 -5.8125 C 16.09375 -3.800781 15.132812 -2.273438 13.65625 -1.234375 C 12.1875 -0.203125 10.539062 0.3125 8.71875 0.3125 C 6.4375 0.3125 4.488281 -0.539062 2.875 -2.25 C 1.269531 -3.96875 0.46875 -6.035156 0.46875 -8.453125 C 0.46875 -10.910156 1.253906 -12.988281 2.828125 -14.6875 C 4.398438 -16.382812 6.363281 -17.234375 8.71875 -17.234375 C 11.46875 -17.234375 13.644531 -16.269531 15.25 -14.34375 L 12.71875 -11.578125 C 11.8125 -13.023438 10.550781 -13.75 8.9375 -13.75 C 7.75 -13.75 6.734375 -13.226562 5.890625 -12.1875 C 5.054688 -11.15625 4.640625 -9.910156 4.640625 -8.453125 C 4.640625 -7.015625 5.054688 -5.785156 5.890625 -4.765625 C 6.734375 -3.742188 7.75 -3.234375 8.9375 -3.234375 C 9.925781 -3.234375 10.785156 -3.53125 11.515625 -4.125 C 12.242188 -4.726562 12.609375 -5.519531 12.609375 -6.5 L 8.71875 -6.5 L 8.71875 -9.484375 Z M 16.53125 -9.484375 "/></g></g></g><g fill="#f2b80c" fill-opacity="1"><g transform="translate(68.659781, 19.676369)"><g><path d="M 10.921875 -16.921875 L 10.921875 -13.546875 L 5.09375 -13.546875 L 5.09375 -10.171875 L 10.671875 -10.171875 L 10.671875 -6.796875 L 5.09375 -6.796875 L 5.09375 -3.390625 L 10.921875 -3.390625 L 10.921875 0 L 1.234375 0 L 1.234375 -16.921875 Z M 10.921875 -16.921875 "/></g></g></g><g fill="#f2b80c" fill-opacity="1"><g transform="translate(80.560448, 19.676369)"><g><path d="M 5.09375 -10.5 L 5.09375 0 L 1.234375 0 L 1.234375 -16.921875 L 5.09375 -16.921875 L 11.8125 -6.421875 L 11.859375 -6.421875 L 11.859375 -16.921875 L 15.71875 -16.921875 L 15.71875 0 L 11.859375 0 L 5.125 -10.5 Z M 5.09375 -10.5 "/></g></g></g><g fill="#f2b80c" fill-opacity="1"><g transform="translate(96.523738, 19.676369)"><g><path d="M 0.171875 -13.546875 L 0.171875 -16.921875 L 12.0625 -16.921875 L 12.0625 -13.546875 L 8.046875 -13.546875 L 8.046875 0 L 4.1875 0 L 4.1875 -13.546875 Z M 0.171875 -13.546875 "/></g></g></g></g></g></g></svg>