<svg xmlns="http://www.w3.org/2000/svg" xmlns:xlink="http://www.w3.org/1999/xlink" width="150" zoomAndPan="magnify" viewBox="0 0 112.5 30.000001" height="40" preserveAspectRatio="xMidYMid meet" version="1.0"><defs><g/><clipPath id="fa64ff835f"><path d="M 2 0 L 110.445312 0 L 110.445312 29.03125 L 2 29.03125 Z M 2 0 " clip-rule="nonzero"/></clipPath><clipPath id="af3a50073f"><rect x="0" width="109" y="0" height="30"/></clipPath></defs><g clip-path="url(#fa64ff835f)"><g transform="matrix(1, 0, 0, 1, 2, 0.000000000000005692)"><g clip-path="url(#af3a50073f)"><g fill="#ffcc0e" fill-opacity="1"><g transform="translate(0.551283, 22.15679)"><g><path d="M 18.238281 -11.375 L 11.441406 -11.375 L 11.441406 -14.96875 C 14.519531 -15.183594 17.382812 -15.460938 19.585938 -15.84375 L 18.945312 -17.296875 C 14.777344 -16.550781 7.527344 -16.144531 1.625 -15.996094 C 1.753906 -15.609375 1.945312 -15.011719 1.96875 -14.5625 C 4.449219 -14.605469 7.140625 -14.691406 9.816406 -14.859375 L 9.816406 -11.375 L 3.273438 -11.375 L 3.273438 -0.832031 L 4.875 -0.832031 L 4.875 -9.835938 L 9.816406 -9.835938 L 9.816406 1.605469 L 11.441406 1.605469 L 11.441406 -9.835938 L 16.613281 -9.835938 L 16.613281 -3.058594 C 16.613281 -2.738281 16.507812 -2.652344 16.164062 -2.652344 C 15.800781 -2.628906 14.605469 -2.628906 13.234375 -2.671875 C 13.449219 -2.222656 13.707031 -1.539062 13.792969 -1.089844 C 15.523438 -1.070312 16.65625 -1.089844 17.363281 -1.367188 C 18.046875 -1.625 18.238281 -2.117188 18.238281 -3.015625 Z M 18.238281 -11.375 "/></g></g></g><g fill="#ffcc0e" fill-opacity="1"><g transform="translate(21.929593, 22.15679)"><g><path d="M 3.636719 -13.941406 L 17.683594 -13.941406 L 17.683594 -11.140625 L 19.328125 -11.140625 L 19.328125 -15.417969 L 11.738281 -15.417969 C 11.417969 -16.144531 10.925781 -17.128906 10.5 -17.917969 L 8.875 -17.535156 C 9.195312 -16.890625 9.578125 -16.078125 9.878906 -15.417969 L 2.054688 -15.417969 L 2.054688 -11.140625 L 3.636719 -11.140625 Z M 14.027344 -8.082031 C 13.386719 -6.371094 12.421875 -4.960938 11.226562 -3.828125 C 9.6875 -4.425781 8.105469 -5.003906 6.628906 -5.472656 C 7.164062 -6.242188 7.742188 -7.140625 8.316406 -8.082031 Z M 19.90625 -8.082031 L 19.90625 -9.601562 L 9.195312 -9.601562 C 9.773438 -10.648438 10.304688 -11.71875 10.734375 -12.679688 L 9.023438 -13.042969 C 8.597656 -11.972656 7.976562 -10.777344 7.335938 -9.601562 L 1.519531 -9.601562 L 1.519531 -8.082031 L 6.4375 -8.082031 C 5.667969 -6.84375 4.875 -5.6875 4.167969 -4.789062 L 4.148438 -4.769531 C 5.921875 -4.210938 7.867188 -3.484375 9.792969 -2.714844 C 7.71875 -1.304688 5.046875 -0.425781 1.816406 0.128906 C 2.160156 0.492188 2.652344 1.175781 2.824219 1.582031 C 6.308594 0.8125 9.171875 -0.257812 11.441406 -2.011719 C 14.132812 -0.832031 16.59375 0.425781 18.152344 1.496094 L 19.457031 0.128906 C 17.832031 -0.917969 15.417969 -2.09375 12.785156 -3.207031 C 14.070312 -4.492188 15.097656 -6.09375 15.84375 -8.082031 Z M 19.90625 -8.082031 "/></g></g></g><g fill="#ffcc0e" fill-opacity="1"><g transform="translate(43.307903, 22.15679)"><g><path d="M 9.835938 -5.367188 C 9.386719 -1.644531 7.976562 -0.234375 1.027344 0.363281 C 1.28125 0.683594 1.605469 1.28125 1.6875 1.644531 C 9.109375 0.875 10.863281 -0.917969 11.398438 -5.367188 Z M 17.40625 -1.625 L 17.40625 -7.933594 L 4 -7.933594 L 4 -1.625 L 5.496094 -1.625 L 5.496094 -6.605469 L 15.867188 -6.605469 L 15.867188 -1.625 Z M 11.097656 -1.175781 C 13.921875 -0.320312 16.722656 0.792969 18.453125 1.667969 L 19.457031 0.578125 C 17.640625 -0.277344 14.667969 -1.367188 11.890625 -2.179688 Z M 12.359375 -13.964844 L 8.851562 -13.964844 L 8.851562 -15.695312 L 12.359375 -15.695312 Z M 17.320312 -12.785156 L 17.320312 -10.433594 L 13.835938 -10.433594 L 13.835938 -12.785156 Z M 8.851562 -12.785156 L 12.359375 -12.785156 L 12.359375 -10.433594 L 8.851562 -10.433594 Z M 4.0625 -12.785156 L 7.398438 -12.785156 L 7.398438 -10.433594 L 4.0625 -10.433594 Z M 1.433594 -17.019531 L 1.433594 -15.695312 L 7.398438 -15.695312 L 7.398438 -13.964844 L 2.609375 -13.964844 L 2.609375 -9.238281 L 18.859375 -9.238281 L 18.859375 -13.964844 L 13.835938 -13.964844 L 13.835938 -15.695312 L 19.929688 -15.695312 L 19.929688 -17.019531 Z M 1.433594 -17.019531 "/></g></g></g><g fill="#ffcc0e" fill-opacity="1"><g transform="translate(64.686213, 22.15679)"><g><path d="M 16.933594 -14.839844 C 16.679688 -15.628906 16.035156 -16.847656 15.417969 -17.769531 L 14.089844 -17.234375 C 14.648438 -16.292969 15.289062 -15.011719 15.523438 -14.199219 Z M 3.699219 -5.988281 C 5.324219 -7.910156 6.972656 -10.328125 8.339844 -12.722656 L 7.054688 -13.472656 C 6.628906 -12.636719 6.160156 -11.804688 5.644531 -10.992188 L 2.886719 -10.691406 C 4.125 -12.550781 5.34375 -14.945312 6.265625 -17.214844 L 4.8125 -17.855469 C 4.019531 -15.308594 2.523438 -12.507812 2.054688 -11.804688 C 1.605469 -11.078125 1.238281 -10.5625 0.898438 -10.476562 C 1.046875 -10.070312 1.304688 -9.324219 1.367188 -9.023438 C 1.667969 -9.171875 2.160156 -9.28125 4.8125 -9.644531 C 3.890625 -8.253906 3.058594 -7.140625 2.652344 -6.714844 C 2.011719 -5.945312 1.496094 -5.386719 1.046875 -5.304688 C 1.21875 -4.9375 1.453125 -4.210938 1.519531 -3.914062 C 1.96875 -4.167969 2.671875 -4.363281 7.824219 -5.410156 C 7.804688 -5.730469 7.804688 -6.308594 7.847656 -6.714844 Z M 1.324219 0.320312 C 3.273438 -0.191406 5.878906 -0.832031 8.359375 -1.496094 L 8.210938 -2.800781 C 5.539062 -2.203125 2.84375 -1.5625 1.027344 -1.199219 Z M 11.441406 -4.277344 L 14.859375 -4.277344 L 14.859375 -1.367188 L 11.441406 -1.367188 Z M 14.859375 -9.898438 L 11.441406 -9.898438 L 11.441406 -12.59375 L 14.859375 -12.59375 Z M 14.859375 -5.710938 L 11.441406 -5.710938 L 11.441406 -8.445312 L 14.859375 -8.445312 Z M 20.378906 -1.367188 L 16.359375 -1.367188 L 16.359375 -4.277344 L 19.585938 -4.277344 L 19.585938 -5.710938 L 16.359375 -5.710938 L 16.359375 -8.445312 L 19.542969 -8.445312 L 19.542969 -9.898438 L 16.359375 -9.898438 L 16.359375 -12.59375 L 20.078125 -12.59375 L 20.078125 -14.046875 L 11.824219 -14.046875 C 12.359375 -15.160156 12.828125 -16.273438 13.191406 -17.339844 L 11.675781 -17.769531 C 10.925781 -15.332031 9.429688 -12.230469 7.71875 -10.265625 C 7.996094 -9.921875 8.382812 -9.238281 8.511719 -8.875 C 9.023438 -9.429688 9.472656 -10.070312 9.941406 -10.734375 L 9.941406 1.667969 L 11.441406 1.667969 L 11.441406 0.105469 L 20.378906 0.105469 Z M 20.378906 -1.367188 "/></g></g></g><g fill="#ffcc0e" fill-opacity="1"><g transform="translate(86.064522, 22.15679)"><g><path d="M 4.382812 -7.140625 L 8.296875 -7.140625 L 8.296875 -4.960938 L 4.382812 -4.960938 Z M 8.296875 -13.640625 L 8.296875 -11.695312 L 4.382812 -11.695312 L 4.382812 -13.640625 Z M 4.382812 -10.414062 L 8.296875 -10.414062 L 8.296875 -8.425781 L 4.382812 -8.425781 Z M 11.441406 -4.960938 L 9.773438 -4.960938 L 9.773438 -13.640625 L 11.332031 -13.640625 L 11.332031 -15.074219 L 9.773438 -15.074219 L 9.773438 -17.683594 L 8.296875 -17.683594 L 8.296875 -15.074219 L 4.382812 -15.074219 L 4.382812 -17.683594 L 2.929688 -17.683594 L 2.929688 -15.074219 L 1.21875 -15.074219 L 1.21875 -13.640625 L 2.929688 -13.640625 L 2.929688 -4.960938 L 0.898438 -4.960938 L 0.898438 -3.527344 L 11.441406 -3.527344 Z M 3.890625 -3.078125 C 3.292969 -1.753906 2.289062 -0.40625 1.175781 0.511719 C 1.539062 0.726562 2.179688 1.175781 2.4375 1.453125 C 3.550781 0.449219 4.703125 -1.113281 5.386719 -2.671875 Z M 6.800781 -2.460938 C 7.503906 -1.625 8.339844 -0.425781 8.679688 0.320312 L 10.007812 -0.386719 C 9.621094 -1.113281 8.789062 -2.246094 8.039062 -3.058594 Z M 20.484375 -10.753906 L 13.578125 -10.753906 L 13.578125 -14.648438 C 15.953125 -15.183594 18.539062 -15.867188 20.3125 -16.699219 L 19.03125 -17.855469 C 17.449219 -17.042969 14.582031 -16.207031 12.101562 -15.671875 L 12.101562 -8.339844 C 12.101562 -4.980469 11.78125 -1.710938 9.300781 0.917969 C 9.664062 1.199219 10.179688 1.625 10.457031 1.945312 C 13.148438 -0.941406 13.578125 -4.425781 13.578125 -8.316406 L 13.578125 -9.257812 L 16.742188 -9.257812 L 16.742188 1.667969 L 18.238281 1.667969 L 18.238281 -9.257812 L 20.484375 -9.257812 Z M 20.484375 -10.753906 "/></g></g></g></g></g></g></svg>