<?xml version="1.0" encoding="UTF-8"?> <svg xmlns="http://www.w3.org/2000/svg" width="1192" height="19" viewBox="0 0 1192 19" fill="none"><path d="M8.255 6.21556C8.42493 6.21556 8.59487 6.25478 8.76481 6.33321C8.94781 6.39857 9.10468 6.49661 9.2354 6.62733C9.37919 6.75805 9.4903 6.91492 9.56874 7.09793C9.64717 7.26786 9.67985 7.44434 9.66678 7.62734C9.53606 8.9084 9.43802 10.1895 9.37266 11.4705C9.32037 12.7385 9.28769 14.0196 9.27461 15.3137C9.26154 15.7189 9.11775 16.0523 8.84324 16.3137C8.56872 16.5752 8.23539 16.7124 7.84323 16.7255C7.64715 16.7386 7.46414 16.7059 7.2942 16.6274C7.12426 16.549 6.97394 16.4444 6.84321 16.3137C6.71249 16.183 6.60792 16.0327 6.52949 15.8627C6.46413 15.6797 6.43145 15.4967 6.43145 15.3137C6.43145 14.9085 6.43145 14.5098 6.43145 14.1176C6.44452 13.7255 6.45759 13.3268 6.47066 12.9215C6.01314 12.9869 5.54255 13.0588 5.05888 13.1372C4.58829 13.2156 4.12423 13.2875 3.66671 13.3529C3.32684 13.4052 2.9935 13.4509 2.6667 13.4902C2.3399 13.5294 2.00656 13.4902 1.66669 13.3725C1.13073 13.2026 0.751643 12.8888 0.529418 12.4313C0.307193 11.9607 0.274513 11.4575 0.431377 10.9215C0.745107 9.7973 1.16995 8.61428 1.7059 7.37244C2.24186 6.11752 2.79742 4.82993 3.37259 3.50965C3.45102 3.32664 3.56213 3.18285 3.70592 3.07827C3.86279 2.96062 4.03273 2.88219 4.21573 2.84298C4.39874 2.80376 4.58175 2.80376 4.76476 2.84298C4.96084 2.86912 5.13731 2.92141 5.29418 2.99984C5.45104 3.07827 5.5883 3.19592 5.70595 3.35279C5.8236 3.50965 5.90203 3.66652 5.94124 3.82338C6.0066 4.03253 6.01968 4.22208 5.98046 4.39201C5.94124 4.56195 5.88242 4.73842 5.80399 4.92143C5.41183 5.81033 5.03274 6.7123 4.66672 7.62734C4.3007 8.54239 3.94122 9.50972 3.58828 10.5293C4.08501 10.4378 4.58829 10.3529 5.0981 10.2744C5.60791 10.196 6.12425 10.1176 6.64713 10.0391C6.67328 9.6339 6.69942 9.23521 6.72557 8.84304C6.76478 8.43781 6.804 8.03258 6.84321 7.62734C6.88243 7.23518 7.01969 6.90838 7.25498 6.64694C7.50335 6.3855 7.83669 6.24171 8.255 6.21556Z" fill="#F2B80C"></path><path d="M63.255 6.21556C63.4249 6.21556 63.5949 6.25478 63.7648 6.33321C63.9478 6.39857 64.1047 6.49661 64.2354 6.62733C64.3792 6.75805 64.4903 6.91492 64.5687 7.09793C64.6472 7.26786 64.6798 7.44434 64.6668 7.62734C64.5361 8.9084 64.438 10.1895 64.3727 11.4705C64.3204 12.7385 64.2877 14.0196 64.2746 15.3137C64.2615 15.7189 64.1178 16.0523 63.8432 16.3137C63.5687 16.5752 63.2354 16.7124 62.8432 16.7255C62.6471 16.7386 62.4641 16.7059 62.2942 16.6274C62.1243 16.549 61.9739 16.4444 61.8432 16.3137C61.7125 16.183 61.6079 16.0327 61.5295 15.8627C61.4641 15.6797 61.4314 15.4967 61.4314 15.3137C61.4314 14.9085 61.4314 14.5098 61.4314 14.1176C61.4445 13.7255 61.4576 13.3268 61.4707 12.9215C61.0131 12.9869 60.5425 13.0588 60.0589 13.1372C59.5883 13.2156 59.1242 13.2875 58.6667 13.3529C58.3268 13.4052 57.9935 13.4509 57.6667 13.4902C57.3399 13.5294 57.0066 13.4902 56.6667 13.3725C56.1307 13.2026 55.7516 12.8888 55.5294 12.4313C55.3072 11.9607 55.2745 11.4575 55.4314 10.9215C55.7451 9.7973 56.1699 8.61428 56.7059 7.37244C57.2419 6.11752 57.7974 4.82993 58.3726 3.50965C58.451 3.32664 58.5621 3.18285 58.7059 3.07827C58.8628 2.96062 59.0327 2.88219 59.2157 2.84298C59.3987 2.80376 59.5818 2.80376 59.7648 2.84298C59.9608 2.86912 60.1373 2.92141 60.2942 2.99984C60.451 3.07827 60.5883 3.19592 60.7059 3.35279C60.8236 3.50965 60.902 3.66652 60.9412 3.82338C61.0066 4.03253 61.0197 4.22208 60.9805 4.39201C60.9412 4.56195 60.8824 4.73842 60.804 4.92143C60.4118 5.81033 60.0327 6.7123 59.6667 7.62734C59.3007 8.54239 58.9412 9.50972 58.5883 10.5293C59.085 10.4378 59.5883 10.3529 60.0981 10.2744C60.6079 10.196 61.1243 10.1176 61.6471 10.0391C61.6733 9.6339 61.6994 9.23521 61.7256 8.84304C61.7648 8.43781 61.804 8.03258 61.8432 7.62734C61.8824 7.23518 62.0197 6.90838 62.255 6.64694C62.5034 6.3855 62.8367 6.24171 63.255 6.21556Z" fill="#F2B80C"></path><path d="M32.5 6L33.7154 9.28459L37 10.5L33.7154 11.7154L32.5 15L31.2846 11.7154L28 10.5L31.2846 9.28459L32.5 6Z" fill="#F2B80C"></path><path d="M87.5 6L88.7154 9.28459L92 10.5L88.7154 11.7154L87.5 15L86.2846 11.7154L83 10.5L86.2846 9.28459L87.5 6Z" fill="#F2B80C"></path><path d="M118.255 6.21556C118.425 6.21556 118.595 6.25478 118.765 6.33321C118.948 6.39857 119.105 6.49661 119.235 6.62733C119.379 6.75805 119.49 6.91492 119.569 7.09793C119.647 7.26786 119.68 7.44434 119.667 7.62734C119.536 8.9084 119.438 10.1895 119.373 11.4705C119.32 12.7385 119.288 14.0196 119.275 15.3137C119.262 15.7189 119.118 16.0523 118.843 16.3137C118.569 16.5752 118.235 16.7124 117.843 16.7255C117.647 16.7386 117.464 16.7059 117.294 16.6274C117.124 16.549 116.974 16.4444 116.843 16.3137C116.712 16.183 116.608 16.0327 116.529 15.8627C116.464 15.6797 116.431 15.4967 116.431 15.3137C116.431 14.9085 116.431 14.5098 116.431 14.1176C116.445 13.7255 116.458 13.3268 116.471 12.9215C116.013 12.9869 115.543 13.0588 115.059 13.1372C114.588 13.2156 114.124 13.2875 113.667 13.3529C113.327 13.4052 112.993 13.4509 112.667 13.4902C112.34 13.5294 112.007 13.4902 111.667 13.3725C111.131 13.2026 110.752 12.8888 110.529 12.4313C110.307 11.9607 110.275 11.4575 110.431 10.9215C110.745 9.7973 111.17 8.61428 111.706 7.37244C112.242 6.11752 112.797 4.82993 113.373 3.50965C113.451 3.32664 113.562 3.18285 113.706 3.07827C113.863 2.96062 114.033 2.88219 114.216 2.84298C114.399 2.80376 114.582 2.80376 114.765 2.84298C114.961 2.86912 115.137 2.92141 115.294 2.99984C115.451 3.07827 115.588 3.19592 115.706 3.35279C115.824 3.50965 115.902 3.66652 115.941 3.82338C116.007 4.03253 116.02 4.22208 115.98 4.39201C115.941 4.56195 115.882 4.73842 115.804 4.92143C115.412 5.81033 115.033 6.7123 114.667 7.62734C114.301 8.54239 113.941 9.50972 113.588 10.5293C114.085 10.4378 114.588 10.3529 115.098 10.2744C115.608 10.196 116.124 10.1176 116.647 10.0391C116.673 9.6339 116.699 9.23521 116.726 8.84304C116.765 8.43781 116.804 8.03258 116.843 7.62734C116.882 7.23518 117.02 6.90838 117.255 6.64694C117.503 6.3855 117.837 6.24171 118.255 6.21556Z" fill="#F2B80C"></path><path d="M173.255 6.21556C173.425 6.21556 173.595 6.25478 173.765 6.33321C173.948 6.39857 174.105 6.49661 174.235 6.62733C174.379 6.75805 174.49 6.91492 174.569 7.09793C174.647 7.26786 174.68 7.44434 174.667 7.62734C174.536 8.9084 174.438 10.1895 174.373 11.4705C174.32 12.7385 174.288 14.0196 174.275 15.3137C174.262 15.7189 174.118 16.0523 173.843 16.3137C173.569 16.5752 173.235 16.7124 172.843 16.7255C172.647 16.7386 172.464 16.7059 172.294 16.6274C172.124 16.549 171.974 16.4444 171.843 16.3137C171.712 16.183 171.608 16.0327 171.529 15.8627C171.464 15.6797 171.431 15.4967 171.431 15.3137C171.431 14.9085 171.431 14.5098 171.431 14.1176C171.445 13.7255 171.458 13.3268 171.471 12.9215C171.013 12.9869 170.543 13.0588 170.059 13.1372C169.588 13.2156 169.124 13.2875 168.667 13.3529C168.327 13.4052 167.993 13.4509 167.667 13.4902C167.34 13.5294 167.007 13.4902 166.667 13.3725C166.131 13.2026 165.752 12.8888 165.529 12.4313C165.307 11.9607 165.275 11.4575 165.431 10.9215C165.745 9.7973 166.17 8.61428 166.706 7.37244C167.242 6.11752 167.797 4.82993 168.373 3.50965C168.451 3.32664 168.562 3.18285 168.706 3.07827C168.863 2.96062 169.033 2.88219 169.216 2.84298C169.399 2.80376 169.582 2.80376 169.765 2.84298C169.961 2.86912 170.137 2.92141 170.294 2.99984C170.451 3.07827 170.588 3.19592 170.706 3.35279C170.824 3.50965 170.902 3.66652 170.941 3.82338C171.007 4.03253 171.02 4.22208 170.98 4.39201C170.941 4.56195 170.882 4.73842 170.804 4.92143C170.412 5.81033 170.033 6.7123 169.667 7.62734C169.301 8.54239 168.941 9.50972 168.588 10.5293C169.085 10.4378 169.588 10.3529 170.098 10.2744C170.608 10.196 171.124 10.1176 171.647 10.0391C171.673 9.6339 171.699 9.23521 171.726 8.84304C171.765 8.43781 171.804 8.03258 171.843 7.62734C171.882 7.23518 172.02 6.90838 172.255 6.64694C172.503 6.3855 172.837 6.24171 173.255 6.21556Z" fill="#F2B80C"></path><path d="M142.5 6L143.715 9.28459L147 10.5L143.715 11.7154L142.5 15L141.285 11.7154L138 10.5L141.285 9.28459L142.5 6Z" fill="#F2B80C"></path><path d="M197.5 6L198.715 9.28459L202 10.5L198.715 11.7154L197.5 15L196.285 11.7154L193 10.5L196.285 9.28459L197.5 6Z" fill="#F2B80C"></path><path d="M228.255 6.21556C228.425 6.21556 228.595 6.25478 228.765 6.33321C228.948 6.39857 229.105 6.49661 229.235 6.62733C229.379 6.75805 229.49 6.91492 229.569 7.09793C229.647 7.26786 229.68 7.44434 229.667 7.62734C229.536 8.9084 229.438 10.1895 229.373 11.4705C229.32 12.7385 229.288 14.0196 229.275 15.3137C229.262 15.7189 229.118 16.0523 228.843 16.3137C228.569 16.5752 228.235 16.7124 227.843 16.7255C227.647 16.7386 227.464 16.7059 227.294 16.6274C227.124 16.549 226.974 16.4444 226.843 16.3137C226.712 16.183 226.608 16.0327 226.529 15.8627C226.464 15.6797 226.431 15.4967 226.431 15.3137C226.431 14.9085 226.431 14.5098 226.431 14.1176C226.445 13.7255 226.458 13.3268 226.471 12.9215C226.013 12.9869 225.543 13.0588 225.059 13.1372C224.588 13.2156 224.124 13.2875 223.667 13.3529C223.327 13.4052 222.993 13.4509 222.667 13.4902C222.34 13.5294 222.007 13.4902 221.667 13.3725C221.131 13.2026 220.752 12.8888 220.529 12.4313C220.307 11.9607 220.275 11.4575 220.431 10.9215C220.745 9.7973 221.17 8.61428 221.706 7.37244C222.242 6.11752 222.797 4.82993 223.373 3.50965C223.451 3.32664 223.562 3.18285 223.706 3.07827C223.863 2.96062 224.033 2.88219 224.216 2.84298C224.399 2.80376 224.582 2.80376 224.765 2.84298C224.961 2.86912 225.137 2.92141 225.294 2.99984C225.451 3.07827 225.588 3.19592 225.706 3.35279C225.824 3.50965 225.902 3.66652 225.941 3.82338C226.007 4.03253 226.02 4.22208 225.98 4.39201C225.941 4.56195 225.882 4.73842 225.804 4.92143C225.412 5.81033 225.033 6.7123 224.667 7.62734C224.301 8.54239 223.941 9.50972 223.588 10.5293C224.085 10.4378 224.588 10.3529 225.098 10.2744C225.608 10.196 226.124 10.1176 226.647 10.0391C226.673 9.6339 226.699 9.23521 226.726 8.84304C226.765 8.43781 226.804 8.03258 226.843 7.62734C226.882 7.23518 227.02 6.90838 227.255 6.64694C227.503 6.3855 227.837 6.24171 228.255 6.21556Z" fill="#F2B80C"></path><path d="M283.255 6.21556C283.425 6.21556 283.595 6.25478 283.765 6.33321C283.948 6.39857 284.105 6.49661 284.235 6.62733C284.379 6.75805 284.49 6.91492 284.569 7.09793C284.647 7.26786 284.68 7.44434 284.667 7.62734C284.536 8.9084 284.438 10.1895 284.373 11.4705C284.32 12.7385 284.288 14.0196 284.275 15.3137C284.262 15.7189 284.118 16.0523 283.843 16.3137C283.569 16.5752 283.235 16.7124 282.843 16.7255C282.647 16.7386 282.464 16.7059 282.294 16.6274C282.124 16.549 281.974 16.4444 281.843 16.3137C281.712 16.183 281.608 16.0327 281.529 15.8627C281.464 15.6797 281.431 15.4967 281.431 15.3137C281.431 14.9085 281.431 14.5098 281.431 14.1176C281.445 13.7255 281.458 13.3268 281.471 12.9215C281.013 12.9869 280.543 13.0588 280.059 13.1372C279.588 13.2156 279.124 13.2875 278.667 13.3529C278.327 13.4052 277.993 13.4509 277.667 13.4902C277.34 13.5294 277.007 13.4902 276.667 13.3725C276.131 13.2026 275.752 12.8888 275.529 12.4313C275.307 11.9607 275.275 11.4575 275.431 10.9215C275.745 9.7973 276.17 8.61428 276.706 7.37244C277.242 6.11752 277.797 4.82993 278.373 3.50965C278.451 3.32664 278.562 3.18285 278.706 3.07827C278.863 2.96062 279.033 2.88219 279.216 2.84298C279.399 2.80376 279.582 2.80376 279.765 2.84298C279.961 2.86912 280.137 2.92141 280.294 2.99984C280.451 3.07827 280.588 3.19592 280.706 3.35279C280.824 3.50965 280.902 3.66652 280.941 3.82338C281.007 4.03253 281.02 4.22208 280.98 4.39201C280.941 4.56195 280.882 4.73842 280.804 4.92143C280.412 5.81033 280.033 6.7123 279.667 7.62734C279.301 8.54239 278.941 9.50972 278.588 10.5293C279.085 10.4378 279.588 10.3529 280.098 10.2744C280.608 10.196 281.124 10.1176 281.647 10.0391C281.673 9.6339 281.699 9.23521 281.726 8.84304C281.765 8.43781 281.804 8.03258 281.843 7.62734C281.882 7.23518 282.02 6.90838 282.255 6.64694C282.503 6.3855 282.837 6.24171 283.255 6.21556Z" fill="#F2B80C"></path><path d="M252.5 6L253.715 9.28459L257 10.5L253.715 11.7154L252.5 15L251.285 11.7154L248 10.5L251.285 9.28459L252.5 6Z" fill="#F2B80C"></path><path d="M307.5 6L308.715 9.28459L312 10.5L308.715 11.7154L307.5 15L306.285 11.7154L303 10.5L306.285 9.28459L307.5 6Z" fill="#F2B80C"></path><path d="M338.255 6.21556C338.425 6.21556 338.595 6.25478 338.765 6.33321C338.948 6.39857 339.105 6.49661 339.235 6.62733C339.379 6.75805 339.49 6.91492 339.569 7.09793C339.647 7.26786 339.68 7.44434 339.667 7.62734C339.536 8.9084 339.438 10.1895 339.373 11.4705C339.32 12.7385 339.288 14.0196 339.275 15.3137C339.262 15.7189 339.118 16.0523 338.843 16.3137C338.569 16.5752 338.235 16.7124 337.843 16.7255C337.647 16.7386 337.464 16.7059 337.294 16.6274C337.124 16.549 336.974 16.4444 336.843 16.3137C336.712 16.183 336.608 16.0327 336.529 15.8627C336.464 15.6797 336.431 15.4967 336.431 15.3137C336.431 14.9085 336.431 14.5098 336.431 14.1176C336.445 13.7255 336.458 13.3268 336.471 12.9215C336.013 12.9869 335.543 13.0588 335.059 13.1372C334.588 13.2156 334.124 13.2875 333.667 13.3529C333.327 13.4052 332.993 13.4509 332.667 13.4902C332.34 13.5294 332.007 13.4902 331.667 13.3725C331.131 13.2026 330.752 12.8888 330.529 12.4313C330.307 11.9607 330.275 11.4575 330.431 10.9215C330.745 9.7973 331.17 8.61428 331.706 7.37244C332.242 6.11752 332.797 4.82993 333.373 3.50965C333.451 3.32664 333.562 3.18285 333.706 3.07827C333.863 2.96062 334.033 2.88219 334.216 2.84298C334.399 2.80376 334.582 2.80376 334.765 2.84298C334.961 2.86912 335.137 2.92141 335.294 2.99984C335.451 3.07827 335.588 3.19592 335.706 3.35279C335.824 3.50965 335.902 3.66652 335.941 3.82338C336.007 4.03253 336.02 4.22208 335.98 4.39201C335.941 4.56195 335.882 4.73842 335.804 4.92143C335.412 5.81033 335.033 6.7123 334.667 7.62734C334.301 8.54239 333.941 9.50972 333.588 10.5293C334.085 10.4378 334.588 10.3529 335.098 10.2744C335.608 10.196 336.124 10.1176 336.647 10.0391C336.673 9.6339 336.699 9.23521 336.726 8.84304C336.765 8.43781 336.804 8.03258 336.843 7.62734C336.882 7.23518 337.02 6.90838 337.255 6.64694C337.503 6.3855 337.837 6.24171 338.255 6.21556Z" fill="#F2B80C"></path><path d="M393.255 6.21556C393.425 6.21556 393.595 6.25478 393.765 6.33321C393.948 6.39857 394.105 6.49661 394.235 6.62733C394.379 6.75805 394.49 6.91492 394.569 7.09793C394.647 7.26786 394.68 7.44434 394.667 7.62734C394.536 8.9084 394.438 10.1895 394.373 11.4705C394.32 12.7385 394.288 14.0196 394.275 15.3137C394.262 15.7189 394.118 16.0523 393.843 16.3137C393.569 16.5752 393.235 16.7124 392.843 16.7255C392.647 16.7386 392.464 16.7059 392.294 16.6274C392.124 16.549 391.974 16.4444 391.843 16.3137C391.712 16.183 391.608 16.0327 391.529 15.8627C391.464 15.6797 391.431 15.4967 391.431 15.3137C391.431 14.9085 391.431 14.5098 391.431 14.1176C391.445 13.7255 391.458 13.3268 391.471 12.9215C391.013 12.9869 390.543 13.0588 390.059 13.1372C389.588 13.2156 389.124 13.2875 388.667 13.3529C388.327 13.4052 387.993 13.4509 387.667 13.4902C387.34 13.5294 387.007 13.4902 386.667 13.3725C386.131 13.2026 385.752 12.8888 385.529 12.4313C385.307 11.9607 385.275 11.4575 385.431 10.9215C385.745 9.7973 386.17 8.61428 386.706 7.37244C387.242 6.11752 387.797 4.82993 388.373 3.50965C388.451 3.32664 388.562 3.18285 388.706 3.07827C388.863 2.96062 389.033 2.88219 389.216 2.84298C389.399 2.80376 389.582 2.80376 389.765 2.84298C389.961 2.86912 390.137 2.92141 390.294 2.99984C390.451 3.07827 390.588 3.19592 390.706 3.35279C390.824 3.50965 390.902 3.66652 390.941 3.82338C391.007 4.03253 391.02 4.22208 390.98 4.39201C390.941 4.56195 390.882 4.73842 390.804 4.92143C390.412 5.81033 390.033 6.7123 389.667 7.62734C389.301 8.54239 388.941 9.50972 388.588 10.5293C389.085 10.4378 389.588 10.3529 390.098 10.2744C390.608 10.196 391.124 10.1176 391.647 10.0391C391.673 9.6339 391.699 9.23521 391.726 8.84304C391.765 8.43781 391.804 8.03258 391.843 7.62734C391.882 7.23518 392.02 6.90838 392.255 6.64694C392.503 6.3855 392.837 6.24171 393.255 6.21556Z" fill="#F2B80C"></path><path d="M362.5 6L363.715 9.28459L367 10.5L363.715 11.7154L362.5 15L361.285 11.7154L358 10.5L361.285 9.28459L362.5 6Z" fill="#F2B80C"></path><path d="M417.5 6L418.715 9.28459L422 10.5L418.715 11.7154L417.5 15L416.285 11.7154L413 10.5L416.285 9.28459L417.5 6Z" fill="#F2B80C"></path><path d="M448.255 6.21556C448.425 6.21556 448.595 6.25478 448.765 6.33321C448.948 6.39857 449.105 6.49661 449.235 6.62733C449.379 6.75805 449.49 6.91492 449.569 7.09793C449.647 7.26786 449.68 7.44434 449.667 7.62734C449.536 8.9084 449.438 10.1895 449.373 11.4705C449.32 12.7385 449.288 14.0196 449.275 15.3137C449.262 15.7189 449.118 16.0523 448.843 16.3137C448.569 16.5752 448.235 16.7124 447.843 16.7255C447.647 16.7386 447.464 16.7059 447.294 16.6274C447.124 16.549 446.974 16.4444 446.843 16.3137C446.712 16.183 446.608 16.0327 446.529 15.8627C446.464 15.6797 446.431 15.4967 446.431 15.3137C446.431 14.9085 446.431 14.5098 446.431 14.1176C446.445 13.7255 446.458 13.3268 446.471 12.9215C446.013 12.9869 445.543 13.0588 445.059 13.1372C444.588 13.2156 444.124 13.2875 443.667 13.3529C443.327 13.4052 442.993 13.4509 442.667 13.4902C442.34 13.5294 442.007 13.4902 441.667 13.3725C441.131 13.2026 440.752 12.8888 440.529 12.4313C440.307 11.9607 440.275 11.4575 440.431 10.9215C440.745 9.7973 441.17 8.61428 441.706 7.37244C442.242 6.11752 442.797 4.82993 443.373 3.50965C443.451 3.32664 443.562 3.18285 443.706 3.07827C443.863 2.96062 444.033 2.88219 444.216 2.84298C444.399 2.80376 444.582 2.80376 444.765 2.84298C444.961 2.86912 445.137 2.92141 445.294 2.99984C445.451 3.07827 445.588 3.19592 445.706 3.35279C445.824 3.50965 445.902 3.66652 445.941 3.82338C446.007 4.03253 446.02 4.22208 445.98 4.39201C445.941 4.56195 445.882 4.73842 445.804 4.92143C445.412 5.81033 445.033 6.7123 444.667 7.62734C444.301 8.54239 443.941 9.50972 443.588 10.5293C444.085 10.4378 444.588 10.3529 445.098 10.2744C445.608 10.196 446.124 10.1176 446.647 10.0391C446.673 9.6339 446.699 9.23521 446.726 8.84304C446.765 8.43781 446.804 8.03258 446.843 7.62734C446.882 7.23518 447.02 6.90838 447.255 6.64694C447.503 6.3855 447.837 6.24171 448.255 6.21556Z" fill="#F2B80C"></path><path d="M503.255 6.21556C503.425 6.21556 503.595 6.25478 503.765 6.33321C503.948 6.39857 504.105 6.49661 504.235 6.62733C504.379 6.75805 504.49 6.91492 504.569 7.09793C504.647 7.26786 504.68 7.44434 504.667 7.62734C504.536 8.9084 504.438 10.1895 504.373 11.4705C504.32 12.7385 504.288 14.0196 504.275 15.3137C504.262 15.7189 504.118 16.0523 503.843 16.3137C503.569 16.5752 503.235 16.7124 502.843 16.7255C502.647 16.7386 502.464 16.7059 502.294 16.6274C502.124 16.549 501.974 16.4444 501.843 16.3137C501.712 16.183 501.608 16.0327 501.529 15.8627C501.464 15.6797 501.431 15.4967 501.431 15.3137C501.431 14.9085 501.431 14.5098 501.431 14.1176C501.445 13.7255 501.458 13.3268 501.471 12.9215C501.013 12.9869 500.543 13.0588 500.059 13.1372C499.588 13.2156 499.124 13.2875 498.667 13.3529C498.327 13.4052 497.993 13.4509 497.667 13.4902C497.34 13.5294 497.007 13.4902 496.667 13.3725C496.131 13.2026 495.752 12.8888 495.529 12.4313C495.307 11.9607 495.275 11.4575 495.431 10.9215C495.745 9.7973 496.17 8.61428 496.706 7.37244C497.242 6.11752 497.797 4.82993 498.373 3.50965C498.451 3.32664 498.562 3.18285 498.706 3.07827C498.863 2.96062 499.033 2.88219 499.216 2.84298C499.399 2.80376 499.582 2.80376 499.765 2.84298C499.961 2.86912 500.137 2.92141 500.294 2.99984C500.451 3.07827 500.588 3.19592 500.706 3.35279C500.824 3.50965 500.902 3.66652 500.941 3.82338C501.007 4.03253 501.02 4.22208 500.98 4.39201C500.941 4.56195 500.882 4.73842 500.804 4.92143C500.412 5.81033 500.033 6.7123 499.667 7.62734C499.301 8.54239 498.941 9.50972 498.588 10.5293C499.085 10.4378 499.588 10.3529 500.098 10.2744C500.608 10.196 501.124 10.1176 501.647 10.0391C501.673 9.6339 501.699 9.23521 501.726 8.84304C501.765 8.43781 501.804 8.03258 501.843 7.62734C501.882 7.23518 502.02 6.90838 502.255 6.64694C502.503 6.3855 502.837 6.24171 503.255 6.21556Z" fill="#F2B80C"></path><path d="M472.5 6L473.715 9.28459L477 10.5L473.715 11.7154L472.5 15L471.285 11.7154L468 10.5L471.285 9.28459L472.5 6Z" fill="#F2B80C"></path><path d="M527.5 6L528.715 9.28459L532 10.5L528.715 11.7154L527.5 15L526.285 11.7154L523 10.5L526.285 9.28459L527.5 6Z" fill="#F2B80C"></path><path d="M558.255 6.21556C558.425 6.21556 558.595 6.25478 558.765 6.33321C558.948 6.39857 559.105 6.49661 559.235 6.62733C559.379 6.75805 559.49 6.91492 559.569 7.09793C559.647 7.26786 559.68 7.44434 559.667 7.62734C559.536 8.9084 559.438 10.1895 559.373 11.4705C559.32 12.7385 559.288 14.0196 559.275 15.3137C559.262 15.7189 559.118 16.0523 558.843 16.3137C558.569 16.5752 558.235 16.7124 557.843 16.7255C557.647 16.7386 557.464 16.7059 557.294 16.6274C557.124 16.549 556.974 16.4444 556.843 16.3137C556.712 16.183 556.608 16.0327 556.529 15.8627C556.464 15.6797 556.431 15.4967 556.431 15.3137C556.431 14.9085 556.431 14.5098 556.431 14.1176C556.445 13.7255 556.458 13.3268 556.471 12.9215C556.013 12.9869 555.543 13.0588 555.059 13.1372C554.588 13.2156 554.124 13.2875 553.667 13.3529C553.327 13.4052 552.993 13.4509 552.667 13.4902C552.34 13.5294 552.007 13.4902 551.667 13.3725C551.131 13.2026 550.752 12.8888 550.529 12.4313C550.307 11.9607 550.275 11.4575 550.431 10.9215C550.745 9.7973 551.17 8.61428 551.706 7.37244C552.242 6.11752 552.797 4.82993 553.373 3.50965C553.451 3.32664 553.562 3.18285 553.706 3.07827C553.863 2.96062 554.033 2.88219 554.216 2.84298C554.399 2.80376 554.582 2.80376 554.765 2.84298C554.961 2.86912 555.137 2.92141 555.294 2.99984C555.451 3.07827 555.588 3.19592 555.706 3.35279C555.824 3.50965 555.902 3.66652 555.941 3.82338C556.007 4.03253 556.02 4.22208 555.98 4.39201C555.941 4.56195 555.882 4.73842 555.804 4.92143C555.412 5.81033 555.033 6.7123 554.667 7.62734C554.301 8.54239 553.941 9.50972 553.588 10.5293C554.085 10.4378 554.588 10.3529 555.098 10.2744C555.608 10.196 556.124 10.1176 556.647 10.0391C556.673 9.6339 556.699 9.23521 556.726 8.84304C556.765 8.43781 556.804 8.03258 556.843 7.62734C556.882 7.23518 557.02 6.90838 557.255 6.64694C557.503 6.3855 557.837 6.24171 558.255 6.21556Z" fill="#F2B80C"></path><path d="M613.255 6.21556C613.425 6.21556 613.595 6.25478 613.765 6.33321C613.948 6.39857 614.105 6.49661 614.235 6.62733C614.379 6.75805 614.49 6.91492 614.569 7.09793C614.647 7.26786 614.68 7.44434 614.667 7.62734C614.536 8.9084 614.438 10.1895 614.373 11.4705C614.32 12.7385 614.288 14.0196 614.275 15.3137C614.262 15.7189 614.118 16.0523 613.843 16.3137C613.569 16.5752 613.235 16.7124 612.843 16.7255C612.647 16.7386 612.464 16.7059 612.294 16.6274C612.124 16.549 611.974 16.4444 611.843 16.3137C611.712 16.183 611.608 16.0327 611.529 15.8627C611.464 15.6797 611.431 15.4967 611.431 15.3137C611.431 14.9085 611.431 14.5098 611.431 14.1176C611.445 13.7255 611.458 13.3268 611.471 12.9215C611.013 12.9869 610.543 13.0588 610.059 13.1372C609.588 13.2156 609.124 13.2875 608.667 13.3529C608.327 13.4052 607.993 13.4509 607.667 13.4902C607.34 13.5294 607.007 13.4902 606.667 13.3725C606.131 13.2026 605.752 12.8888 605.529 12.4313C605.307 11.9607 605.275 11.4575 605.431 10.9215C605.745 9.7973 606.17 8.61428 606.706 7.37244C607.242 6.11752 607.797 4.82993 608.373 3.50965C608.451 3.32664 608.562 3.18285 608.706 3.07827C608.863 2.96062 609.033 2.88219 609.216 2.84298C609.399 2.80376 609.582 2.80376 609.765 2.84298C609.961 2.86912 610.137 2.92141 610.294 2.99984C610.451 3.07827 610.588 3.19592 610.706 3.35279C610.824 3.50965 610.902 3.66652 610.941 3.82338C611.007 4.03253 611.02 4.22208 610.98 4.39201C610.941 4.56195 610.882 4.73842 610.804 4.92143C610.412 5.81033 610.033 6.7123 609.667 7.62734C609.301 8.54239 608.941 9.50972 608.588 10.5293C609.085 10.4378 609.588 10.3529 610.098 10.2744C610.608 10.196 611.124 10.1176 611.647 10.0391C611.673 9.6339 611.699 9.23521 611.726 8.84304C611.765 8.43781 611.804 8.03258 611.843 7.62734C611.882 7.23518 612.02 6.90838 612.255 6.64694C612.503 6.3855 612.837 6.24171 613.255 6.21556Z" fill="#F2B80C"></path><path d="M582.5 6L583.715 9.28459L587 10.5L583.715 11.7154L582.5 15L581.285 11.7154L578 10.5L581.285 9.28459L582.5 6Z" fill="#F2B80C"></path><path d="M637.5 6L638.715 9.28459L642 10.5L638.715 11.7154L637.5 15L636.285 11.7154L633 10.5L636.285 9.28459L637.5 6Z" fill="#F2B80C"></path><path d="M668.255 6.21556C668.425 6.21556 668.595 6.25478 668.765 6.33321C668.948 6.39857 669.105 6.49661 669.235 6.62733C669.379 6.75805 669.49 6.91492 669.569 7.09793C669.647 7.26786 669.68 7.44434 669.667 7.62734C669.536 8.9084 669.438 10.1895 669.373 11.4705C669.32 12.7385 669.288 14.0196 669.275 15.3137C669.262 15.7189 669.118 16.0523 668.843 16.3137C668.569 16.5752 668.235 16.7124 667.843 16.7255C667.647 16.7386 667.464 16.7059 667.294 16.6274C667.124 16.549 666.974 16.4444 666.843 16.3137C666.712 16.183 666.608 16.0327 666.529 15.8627C666.464 15.6797 666.431 15.4967 666.431 15.3137C666.431 14.9085 666.431 14.5098 666.431 14.1176C666.445 13.7255 666.458 13.3268 666.471 12.9215C666.013 12.9869 665.543 13.0588 665.059 13.1372C664.588 13.2156 664.124 13.2875 663.667 13.3529C663.327 13.4052 662.993 13.4509 662.667 13.4902C662.34 13.5294 662.007 13.4902 661.667 13.3725C661.131 13.2026 660.752 12.8888 660.529 12.4313C660.307 11.9607 660.275 11.4575 660.431 10.9215C660.745 9.7973 661.17 8.61428 661.706 7.37244C662.242 6.11752 662.797 4.82993 663.373 3.50965C663.451 3.32664 663.562 3.18285 663.706 3.07827C663.863 2.96062 664.033 2.88219 664.216 2.84298C664.399 2.80376 664.582 2.80376 664.765 2.84298C664.961 2.86912 665.137 2.92141 665.294 2.99984C665.451 3.07827 665.588 3.19592 665.706 3.35279C665.824 3.50965 665.902 3.66652 665.941 3.82338C666.007 4.03253 666.02 4.22208 665.98 4.39201C665.941 4.56195 665.882 4.73842 665.804 4.92143C665.412 5.81033 665.033 6.7123 664.667 7.62734C664.301 8.54239 663.941 9.50972 663.588 10.5293C664.085 10.4378 664.588 10.3529 665.098 10.2744C665.608 10.196 666.124 10.1176 666.647 10.0391C666.673 9.6339 666.699 9.23521 666.726 8.84304C666.765 8.43781 666.804 8.03258 666.843 7.62734C666.882 7.23518 667.02 6.90838 667.255 6.64694C667.503 6.3855 667.837 6.24171 668.255 6.21556Z" fill="#F2B80C"></path><path d="M723.255 6.21556C723.425 6.21556 723.595 6.25478 723.765 6.33321C723.948 6.39857 724.105 6.49661 724.235 6.62733C724.379 6.75805 724.49 6.91492 724.569 7.09793C724.647 7.26786 724.68 7.44434 724.667 7.62734C724.536 8.9084 724.438 10.1895 724.373 11.4705C724.32 12.7385 724.288 14.0196 724.275 15.3137C724.262 15.7189 724.118 16.0523 723.843 16.3137C723.569 16.5752 723.235 16.7124 722.843 16.7255C722.647 16.7386 722.464 16.7059 722.294 16.6274C722.124 16.549 721.974 16.4444 721.843 16.3137C721.712 16.183 721.608 16.0327 721.529 15.8627C721.464 15.6797 721.431 15.4967 721.431 15.3137C721.431 14.9085 721.431 14.5098 721.431 14.1176C721.445 13.7255 721.458 13.3268 721.471 12.9215C721.013 12.9869 720.543 13.0588 720.059 13.1372C719.588 13.2156 719.124 13.2875 718.667 13.3529C718.327 13.4052 717.993 13.4509 717.667 13.4902C717.34 13.5294 717.007 13.4902 716.667 13.3725C716.131 13.2026 715.752 12.8888 715.529 12.4313C715.307 11.9607 715.275 11.4575 715.431 10.9215C715.745 9.7973 716.17 8.61428 716.706 7.37244C717.242 6.11752 717.797 4.82993 718.373 3.50965C718.451 3.32664 718.562 3.18285 718.706 3.07827C718.863 2.96062 719.033 2.88219 719.216 2.84298C719.399 2.80376 719.582 2.80376 719.765 2.84298C719.961 2.86912 720.137 2.92141 720.294 2.99984C720.451 3.07827 720.588 3.19592 720.706 3.35279C720.824 3.50965 720.902 3.66652 720.941 3.82338C721.007 4.03253 721.02 4.22208 720.98 4.39201C720.941 4.56195 720.882 4.73842 720.804 4.92143C720.412 5.81033 720.033 6.7123 719.667 7.62734C719.301 8.54239 718.941 9.50972 718.588 10.5293C719.085 10.4378 719.588 10.3529 720.098 10.2744C720.608 10.196 721.124 10.1176 721.647 10.0391C721.673 9.6339 721.699 9.23521 721.726 8.84304C721.765 8.43781 721.804 8.03258 721.843 7.62734C721.882 7.23518 722.02 6.90838 722.255 6.64694C722.503 6.3855 722.837 6.24171 723.255 6.21556Z" fill="#F2B80C"></path><path d="M692.5 6L693.715 9.28459L697 10.5L693.715 11.7154L692.5 15L691.285 11.7154L688 10.5L691.285 9.28459L692.5 6Z" fill="#F2B80C"></path><path d="M747.5 6L748.715 9.28459L752 10.5L748.715 11.7154L747.5 15L746.285 11.7154L743 10.5L746.285 9.28459L747.5 6Z" fill="#F2B80C"></path><path d="M778.255 6.21556C778.425 6.21556 778.595 6.25478 778.765 6.33321C778.948 6.39857 779.105 6.49661 779.235 6.62733C779.379 6.75805 779.49 6.91492 779.569 7.09793C779.647 7.26786 779.68 7.44434 779.667 7.62734C779.536 8.9084 779.438 10.1895 779.373 11.4705C779.32 12.7385 779.288 14.0196 779.275 15.3137C779.262 15.7189 779.118 16.0523 778.843 16.3137C778.569 16.5752 778.235 16.7124 777.843 16.7255C777.647 16.7386 777.464 16.7059 777.294 16.6274C777.124 16.549 776.974 16.4444 776.843 16.3137C776.712 16.183 776.608 16.0327 776.529 15.8627C776.464 15.6797 776.431 15.4967 776.431 15.3137C776.431 14.9085 776.431 14.5098 776.431 14.1176C776.445 13.7255 776.458 13.3268 776.471 12.9215C776.013 12.9869 775.543 13.0588 775.059 13.1372C774.588 13.2156 774.124 13.2875 773.667 13.3529C773.327 13.4052 772.993 13.4509 772.667 13.4902C772.34 13.5294 772.007 13.4902 771.667 13.3725C771.131 13.2026 770.752 12.8888 770.529 12.4313C770.307 11.9607 770.275 11.4575 770.431 10.9215C770.745 9.7973 771.17 8.61428 771.706 7.37244C772.242 6.11752 772.797 4.82993 773.373 3.50965C773.451 3.32664 773.562 3.18285 773.706 3.07827C773.863 2.96062 774.033 2.88219 774.216 2.84298C774.399 2.80376 774.582 2.80376 774.765 2.84298C774.961 2.86912 775.137 2.92141 775.294 2.99984C775.451 3.07827 775.588 3.19592 775.706 3.35279C775.824 3.50965 775.902 3.66652 775.941 3.82338C776.007 4.03253 776.02 4.22208 775.98 4.39201C775.941 4.56195 775.882 4.73842 775.804 4.92143C775.412 5.81033 775.033 6.7123 774.667 7.62734C774.301 8.54239 773.941 9.50972 773.588 10.5293C774.085 10.4378 774.588 10.3529 775.098 10.2744C775.608 10.196 776.124 10.1176 776.647 10.0391C776.673 9.6339 776.699 9.23521 776.726 8.84304C776.765 8.43781 776.804 8.03258 776.843 7.62734C776.882 7.23518 777.02 6.90838 777.255 6.64694C777.503 6.3855 777.837 6.24171 778.255 6.21556Z" fill="#F2B80C"></path><path d="M833.255 6.21556C833.425 6.21556 833.595 6.25478 833.765 6.33321C833.948 6.39857 834.105 6.49661 834.235 6.62733C834.379 6.75805 834.49 6.91492 834.569 7.09793C834.647 7.26786 834.68 7.44434 834.667 7.62734C834.536 8.9084 834.438 10.1895 834.373 11.4705C834.32 12.7385 834.288 14.0196 834.275 15.3137C834.262 15.7189 834.118 16.0523 833.843 16.3137C833.569 16.5752 833.235 16.7124 832.843 16.7255C832.647 16.7386 832.464 16.7059 832.294 16.6274C832.124 16.549 831.974 16.4444 831.843 16.3137C831.712 16.183 831.608 16.0327 831.529 15.8627C831.464 15.6797 831.431 15.4967 831.431 15.3137C831.431 14.9085 831.431 14.5098 831.431 14.1176C831.445 13.7255 831.458 13.3268 831.471 12.9215C831.013 12.9869 830.543 13.0588 830.059 13.1372C829.588 13.2156 829.124 13.2875 828.667 13.3529C828.327 13.4052 827.993 13.4509 827.667 13.4902C827.34 13.5294 827.007 13.4902 826.667 13.3725C826.131 13.2026 825.752 12.8888 825.529 12.4313C825.307 11.9607 825.275 11.4575 825.431 10.9215C825.745 9.7973 826.17 8.61428 826.706 7.37244C827.242 6.11752 827.797 4.82993 828.373 3.50965C828.451 3.32664 828.562 3.18285 828.706 3.07827C828.863 2.96062 829.033 2.88219 829.216 2.84298C829.399 2.80376 829.582 2.80376 829.765 2.84298C829.961 2.86912 830.137 2.92141 830.294 2.99984C830.451 3.07827 830.588 3.19592 830.706 3.35279C830.824 3.50965 830.902 3.66652 830.941 3.82338C831.007 4.03253 831.02 4.22208 830.98 4.39201C830.941 4.56195 830.882 4.73842 830.804 4.92143C830.412 5.81033 830.033 6.7123 829.667 7.62734C829.301 8.54239 828.941 9.50972 828.588 10.5293C829.085 10.4378 829.588 10.3529 830.098 10.2744C830.608 10.196 831.124 10.1176 831.647 10.0391C831.673 9.6339 831.699 9.23521 831.726 8.84304C831.765 8.43781 831.804 8.03258 831.843 7.62734C831.882 7.23518 832.02 6.90838 832.255 6.64694C832.503 6.3855 832.837 6.24171 833.255 6.21556Z" fill="#F2B80C"></path><path d="M802.5 6L803.715 9.28459L807 10.5L803.715 11.7154L802.5 15L801.285 11.7154L798 10.5L801.285 9.28459L802.5 6Z" fill="#F2B80C"></path><path d="M857.5 6L858.715 9.28459L862 10.5L858.715 11.7154L857.5 15L856.285 11.7154L853 10.5L856.285 9.28459L857.5 6Z" fill="#F2B80C"></path><path d="M888.255 6.21556C888.425 6.21556 888.595 6.25478 888.765 6.33321C888.948 6.39857 889.105 6.49661 889.235 6.62733C889.379 6.75805 889.49 6.91492 889.569 7.09793C889.647 7.26786 889.68 7.44434 889.667 7.62734C889.536 8.9084 889.438 10.1895 889.373 11.4705C889.32 12.7385 889.288 14.0196 889.275 15.3137C889.262 15.7189 889.118 16.0523 888.843 16.3137C888.569 16.5752 888.235 16.7124 887.843 16.7255C887.647 16.7386 887.464 16.7059 887.294 16.6274C887.124 16.549 886.974 16.4444 886.843 16.3137C886.712 16.183 886.608 16.0327 886.529 15.8627C886.464 15.6797 886.431 15.4967 886.431 15.3137C886.431 14.9085 886.431 14.5098 886.431 14.1176C886.445 13.7255 886.458 13.3268 886.471 12.9215C886.013 12.9869 885.543 13.0588 885.059 13.1372C884.588 13.2156 884.124 13.2875 883.667 13.3529C883.327 13.4052 882.993 13.4509 882.667 13.4902C882.34 13.5294 882.007 13.4902 881.667 13.3725C881.131 13.2026 880.752 12.8888 880.529 12.4313C880.307 11.9607 880.275 11.4575 880.431 10.9215C880.745 9.7973 881.17 8.61428 881.706 7.37244C882.242 6.11752 882.797 4.82993 883.373 3.50965C883.451 3.32664 883.562 3.18285 883.706 3.07827C883.863 2.96062 884.033 2.88219 884.216 2.84298C884.399 2.80376 884.582 2.80376 884.765 2.84298C884.961 2.86912 885.137 2.92141 885.294 2.99984C885.451 3.07827 885.588 3.19592 885.706 3.35279C885.824 3.50965 885.902 3.66652 885.941 3.82338C886.007 4.03253 886.02 4.22208 885.98 4.39201C885.941 4.56195 885.882 4.73842 885.804 4.92143C885.412 5.81033 885.033 6.7123 884.667 7.62734C884.301 8.54239 883.941 9.50972 883.588 10.5293C884.085 10.4378 884.588 10.3529 885.098 10.2744C885.608 10.196 886.124 10.1176 886.647 10.0391C886.673 9.6339 886.699 9.23521 886.726 8.84304C886.765 8.43781 886.804 8.03258 886.843 7.62734C886.882 7.23518 887.02 6.90838 887.255 6.64694C887.503 6.3855 887.837 6.24171 888.255 6.21556Z" fill="#F2B80C"></path><path d="M943.255 6.21556C943.425 6.21556 943.595 6.25478 943.765 6.33321C943.948 6.39857 944.105 6.49661 944.235 6.62733C944.379 6.75805 944.49 6.91492 944.569 7.09793C944.647 7.26786 944.68 7.44434 944.667 7.62734C944.536 8.9084 944.438 10.1895 944.373 11.4705C944.32 12.7385 944.288 14.0196 944.275 15.3137C944.262 15.7189 944.118 16.0523 943.843 16.3137C943.569 16.5752 943.235 16.7124 942.843 16.7255C942.647 16.7386 942.464 16.7059 942.294 16.6274C942.124 16.549 941.974 16.4444 941.843 16.3137C941.712 16.183 941.608 16.0327 941.529 15.8627C941.464 15.6797 941.431 15.4967 941.431 15.3137C941.431 14.9085 941.431 14.5098 941.431 14.1176C941.445 13.7255 941.458 13.3268 941.471 12.9215C941.013 12.9869 940.543 13.0588 940.059 13.1372C939.588 13.2156 939.124 13.2875 938.667 13.3529C938.327 13.4052 937.993 13.4509 937.667 13.4902C937.34 13.5294 937.007 13.4902 936.667 13.3725C936.131 13.2026 935.752 12.8888 935.529 12.4313C935.307 11.9607 935.275 11.4575 935.431 10.9215C935.745 9.7973 936.17 8.61428 936.706 7.37244C937.242 6.11752 937.797 4.82993 938.373 3.50965C938.451 3.32664 938.562 3.18285 938.706 3.07827C938.863 2.96062 939.033 2.88219 939.216 2.84298C939.399 2.80376 939.582 2.80376 939.765 2.84298C939.961 2.86912 940.137 2.92141 940.294 2.99984C940.451 3.07827 940.588 3.19592 940.706 3.35279C940.824 3.50965 940.902 3.66652 940.941 3.82338C941.007 4.03253 941.02 4.22208 940.98 4.39201C940.941 4.56195 940.882 4.73842 940.804 4.92143C940.412 5.81033 940.033 6.7123 939.667 7.62734C939.301 8.54239 938.941 9.50972 938.588 10.5293C939.085 10.4378 939.588 10.3529 940.098 10.2744C940.608 10.196 941.124 10.1176 941.647 10.0391C941.673 9.6339 941.699 9.23521 941.726 8.84304C941.765 8.43781 941.804 8.03258 941.843 7.62734C941.882 7.23518 942.02 6.90838 942.255 6.64694C942.503 6.3855 942.837 6.24171 943.255 6.21556Z" fill="#F2B80C"></path><path d="M912.5 6L913.715 9.28459L917 10.5L913.715 11.7154L912.5 15L911.285 11.7154L908 10.5L911.285 9.28459L912.5 6Z" fill="#F2B80C"></path><path d="M967.5 6L968.715 9.28459L972 10.5L968.715 11.7154L967.5 15L966.285 11.7154L963 10.5L966.285 9.28459L967.5 6Z" fill="#F2B80C"></path><path d="M998.255 6.21556C998.425 6.21556 998.595 6.25478 998.765 6.33321C998.948 6.39857 999.105 6.49661 999.235 6.62733C999.379 6.75805 999.49 6.91492 999.569 7.09793C999.647 7.26786 999.68 7.44434 999.667 7.62734C999.536 8.9084 999.438 10.1895 999.373 11.4705C999.32 12.7385 999.288 14.0196 999.275 15.3137C999.262 15.7189 999.118 16.0523 998.843 16.3137C998.569 16.5752 998.235 16.7124 997.843 16.7255C997.647 16.7386 997.464 16.7059 997.294 16.6274C997.124 16.549 996.974 16.4444 996.843 16.3137C996.712 16.183 996.608 16.0327 996.529 15.8627C996.464 15.6797 996.431 15.4967 996.431 15.3137C996.431 14.9085 996.431 14.5098 996.431 14.1176C996.445 13.7255 996.458 13.3268 996.471 12.9215C996.013 12.9869 995.543 13.0588 995.059 13.1372C994.588 13.2156 994.124 13.2875 993.667 13.3529C993.327 13.4052 992.993 13.4509 992.667 13.4902C992.34 13.5294 992.007 13.4902 991.667 13.3725C991.131 13.2026 990.752 12.8888 990.529 12.4313C990.307 11.9607 990.275 11.4575 990.431 10.9215C990.745 9.7973 991.17 8.61428 991.706 7.37244C992.242 6.11752 992.797 4.82993 993.373 3.50965C993.451 3.32664 993.562 3.18285 993.706 3.07827C993.863 2.96062 994.033 2.88219 994.216 2.84298C994.399 2.80376 994.582 2.80376 994.765 2.84298C994.961 2.86912 995.137 2.92141 995.294 2.99984C995.451 3.07827 995.588 3.19592 995.706 3.35279C995.824 3.50965 995.902 3.66652 995.941 3.82338C996.007 4.03253 996.02 4.22208 995.98 4.39201C995.941 4.56195 995.882 4.73842 995.804 4.92143C995.412 5.81033 995.033 6.7123 994.667 7.62734C994.301 8.54239 993.941 9.50972 993.588 10.5293C994.085 10.4378 994.588 10.3529 995.098 10.2744C995.608 10.196 996.124 10.1176 996.647 10.0391C996.673 9.6339 996.699 9.23521 996.726 8.84304C996.765 8.43781 996.804 8.03258 996.843 7.62734C996.882 7.23518 997.02 6.90838 997.255 6.64694C997.503 6.3855 997.837 6.24171 998.255 6.21556Z" fill="#F2B80C"></path><path d="M1053.25 6.21556C1053.42 6.21556 1053.59 6.25478 1053.76 6.33321C1053.95 6.39857 1054.1 6.49661 1054.24 6.62733C1054.38 6.75805 1054.49 6.91492 1054.57 7.09793C1054.65 7.26786 1054.68 7.44434 1054.67 7.62734C1054.54 8.9084 1054.44 10.1895 1054.37 11.4705C1054.32 12.7385 1054.29 14.0196 1054.27 15.3137C1054.26 15.7189 1054.12 16.0523 1053.84 16.3137C1053.57 16.5752 1053.24 16.7124 1052.84 16.7255C1052.65 16.7386 1052.46 16.7059 1052.29 16.6274C1052.12 16.549 1051.97 16.4444 1051.84 16.3137C1051.71 16.183 1051.61 16.0327 1051.53 15.8627C1051.46 15.6797 1051.43 15.4967 1051.43 15.3137C1051.43 14.9085 1051.43 14.5098 1051.43 14.1176C1051.44 13.7255 1051.46 13.3268 1051.47 12.9215C1051.01 12.9869 1050.54 13.0588 1050.06 13.1372C1049.59 13.2156 1049.12 13.2875 1048.67 13.3529C1048.33 13.4052 1047.99 13.4509 1047.67 13.4902C1047.34 13.5294 1047.01 13.4902 1046.67 13.3725C1046.13 13.2026 1045.75 12.8888 1045.53 12.4313C1045.31 11.9607 1045.27 11.4575 1045.43 10.9215C1045.75 9.7973 1046.17 8.61428 1046.71 7.37244C1047.24 6.11752 1047.8 4.82993 1048.37 3.50965C1048.45 3.32664 1048.56 3.18285 1048.71 3.07827C1048.86 2.96062 1049.03 2.88219 1049.22 2.84298C1049.4 2.80376 1049.58 2.80376 1049.76 2.84298C1049.96 2.86912 1050.14 2.92141 1050.29 2.99984C1050.45 3.07827 1050.59 3.19592 1050.71 3.35279C1050.82 3.50965 1050.9 3.66652 1050.94 3.82338C1051.01 4.03253 1051.02 4.22208 1050.98 4.39201C1050.94 4.56195 1050.88 4.73842 1050.8 4.92143C1050.41 5.81033 1050.03 6.7123 1049.67 7.62734C1049.3 8.54239 1048.94 9.50972 1048.59 10.5293C1049.09 10.4378 1049.59 10.3529 1050.1 10.2744C1050.61 10.196 1051.12 10.1176 1051.65 10.0391C1051.67 9.6339 1051.7 9.23521 1051.73 8.84304C1051.76 8.43781 1051.8 8.03258 1051.84 7.62734C1051.88 7.23518 1052.02 6.90838 1052.25 6.64694C1052.5 6.3855 1052.84 6.24171 1053.25 6.21556Z" fill="#F2B80C"></path><path d="M1022.5 6L1023.72 9.28459L1027 10.5L1023.72 11.7154L1022.5 15L1021.28 11.7154L1018 10.5L1021.28 9.28459L1022.5 6Z" fill="#F2B80C"></path><path d="M1077.5 6L1078.72 9.28459L1082 10.5L1078.72 11.7154L1077.5 15L1076.28 11.7154L1073 10.5L1076.28 9.28459L1077.5 6Z" fill="#F2B80C"></path><path d="M1108.25 6.21556C1108.42 6.21556 1108.59 6.25478 1108.76 6.33321C1108.95 6.39857 1109.1 6.49661 1109.24 6.62733C1109.38 6.75805 1109.49 6.91492 1109.57 7.09793C1109.65 7.26786 1109.68 7.44434 1109.67 7.62734C1109.54 8.9084 1109.44 10.1895 1109.37 11.4705C1109.32 12.7385 1109.29 14.0196 1109.27 15.3137C1109.26 15.7189 1109.12 16.0523 1108.84 16.3137C1108.57 16.5752 1108.24 16.7124 1107.84 16.7255C1107.65 16.7386 1107.46 16.7059 1107.29 16.6274C1107.12 16.549 1106.97 16.4444 1106.84 16.3137C1106.71 16.183 1106.61 16.0327 1106.53 15.8627C1106.46 15.6797 1106.43 15.4967 1106.43 15.3137C1106.43 14.9085 1106.43 14.5098 1106.43 14.1176C1106.44 13.7255 1106.46 13.3268 1106.47 12.9215C1106.01 12.9869 1105.54 13.0588 1105.06 13.1372C1104.59 13.2156 1104.12 13.2875 1103.67 13.3529C1103.33 13.4052 1102.99 13.4509 1102.67 13.4902C1102.34 13.5294 1102.01 13.4902 1101.67 13.3725C1101.13 13.2026 1100.75 12.8888 1100.53 12.4313C1100.31 11.9607 1100.27 11.4575 1100.43 10.9215C1100.75 9.7973 1101.17 8.61428 1101.71 7.37244C1102.24 6.11752 1102.8 4.82993 1103.37 3.50965C1103.45 3.32664 1103.56 3.18285 1103.71 3.07827C1103.86 2.96062 1104.03 2.88219 1104.22 2.84298C1104.4 2.80376 1104.58 2.80376 1104.76 2.84298C1104.96 2.86912 1105.14 2.92141 1105.29 2.99984C1105.45 3.07827 1105.59 3.19592 1105.71 3.35279C1105.82 3.50965 1105.9 3.66652 1105.94 3.82338C1106.01 4.03253 1106.02 4.22208 1105.98 4.39201C1105.94 4.56195 1105.88 4.73842 1105.8 4.92143C1105.41 5.81033 1105.03 6.7123 1104.67 7.62734C1104.3 8.54239 1103.94 9.50972 1103.59 10.5293C1104.09 10.4378 1104.59 10.3529 1105.1 10.2744C1105.61 10.196 1106.12 10.1176 1106.65 10.0391C1106.67 9.6339 1106.7 9.23521 1106.73 8.84304C1106.76 8.43781 1106.8 8.03258 1106.84 7.62734C1106.88 7.23518 1107.02 6.90838 1107.25 6.64694C1107.5 6.3855 1107.84 6.24171 1108.25 6.21556Z" fill="#F2B80C"></path><path d="M1163.25 6.21556C1163.42 6.21556 1163.59 6.25478 1163.76 6.33321C1163.95 6.39857 1164.1 6.49661 1164.24 6.62733C1164.38 6.75805 1164.49 6.91492 1164.57 7.09793C1164.65 7.26786 1164.68 7.44434 1164.67 7.62734C1164.54 8.9084 1164.44 10.1895 1164.37 11.4705C1164.32 12.7385 1164.29 14.0196 1164.27 15.3137C1164.26 15.7189 1164.12 16.0523 1163.84 16.3137C1163.57 16.5752 1163.24 16.7124 1162.84 16.7255C1162.65 16.7386 1162.46 16.7059 1162.29 16.6274C1162.12 16.549 1161.97 16.4444 1161.84 16.3137C1161.71 16.183 1161.61 16.0327 1161.53 15.8627C1161.46 15.6797 1161.43 15.4967 1161.43 15.3137C1161.43 14.9085 1161.43 14.5098 1161.43 14.1176C1161.44 13.7255 1161.46 13.3268 1161.47 12.9215C1161.01 12.9869 1160.54 13.0588 1160.06 13.1372C1159.59 13.2156 1159.12 13.2875 1158.67 13.3529C1158.33 13.4052 1157.99 13.4509 1157.67 13.4902C1157.34 13.5294 1157.01 13.4902 1156.67 13.3725C1156.13 13.2026 1155.75 12.8888 1155.53 12.4313C1155.31 11.9607 1155.27 11.4575 1155.43 10.9215C1155.75 9.7973 1156.17 8.61428 1156.71 7.37244C1157.24 6.11752 1157.8 4.82993 1158.37 3.50965C1158.45 3.32664 1158.56 3.18285 1158.71 3.07827C1158.86 2.96062 1159.03 2.88219 1159.22 2.84298C1159.4 2.80376 1159.58 2.80376 1159.76 2.84298C1159.96 2.86912 1160.14 2.92141 1160.29 2.99984C1160.45 3.07827 1160.59 3.19592 1160.71 3.35279C1160.82 3.50965 1160.9 3.66652 1160.94 3.82338C1161.01 4.03253 1161.02 4.22208 1160.98 4.39201C1160.94 4.56195 1160.88 4.73842 1160.8 4.92143C1160.41 5.81033 1160.03 6.7123 1159.67 7.62734C1159.3 8.54239 1158.94 9.50972 1158.59 10.5293C1159.09 10.4378 1159.59 10.3529 1160.1 10.2744C1160.61 10.196 1161.12 10.1176 1161.65 10.0391C1161.67 9.6339 1161.7 9.23521 1161.73 8.84304C1161.76 8.43781 1161.8 8.03258 1161.84 7.62734C1161.88 7.23518 1162.02 6.90838 1162.25 6.64694C1162.5 6.3855 1162.84 6.24171 1163.25 6.21556Z" fill="#F2B80C"></path><path d="M1132.5 6L1133.72 9.28459L1137 10.5L1133.72 11.7154L1132.5 15L1131.28 11.7154L1128 10.5L1131.28 9.28459L1132.5 6Z" fill="#F2B80C"></path><path d="M1187.5 6L1188.72 9.28459L1192 10.5L1188.72 11.7154L1187.5 15L1186.28 11.7154L1183 10.5L1186.28 9.28459L1187.5 6Z" fill="#F2B80C"></path></svg> 