<?xml version="1.0" encoding="UTF-8"?> <svg xmlns="http://www.w3.org/2000/svg" width="33" height="33" viewBox="0 0 33 33" fill="none"><rect x="0.5" y="0.5" width="32" height="32" rx="7.5" fill="#F2B80C" fill-opacity="0.2" stroke="#F2B80C"></rect><path d="M9.3305 16.9139L12.7805 18.036L20.9722 13.2397C21.0911 13.1705 21.2127 13.3249 21.1104 13.4152L14.9089 18.8821L14.6786 21.9426C14.6748 21.9938 14.6874 22.045 14.7147 22.0892C14.742 22.1335 14.7827 22.1688 14.8314 22.1904C14.8801 22.2119 14.9345 22.2189 14.9874 22.2102C15.0402 22.2015 15.0891 22.1776 15.1275 22.1416L17.0368 20.3433L20.5276 22.8738C20.9036 23.1468 21.4485 22.9544 21.5497 22.5131L23.9803 11.9437C24.119 11.3408 23.5019 10.8319 22.9002 11.0525L9.31335 16.0355C8.88692 16.192 8.89871 16.7733 9.3305 16.9139Z" fill="#F2B80C"></path></svg> 