<?xml version="1.0" encoding="UTF-8"?> <svg xmlns="http://www.w3.org/2000/svg" width="18" height="18" viewBox="0 0 18 18" fill="none"><path d="M8.47389 14.5H12.6507C12.434 15.0416 12.0598 15.5057 11.5764 15.8323C11.093 16.1589 10.5228 16.333 9.93943 16.332H4.80996C4.42501 16.3321 4.04381 16.2563 3.68814 16.1091C3.33248 15.9618 3.00931 15.7459 2.73711 15.4737C2.46491 15.2015 2.24901 14.8783 2.10174 14.5227C1.95448 14.167 1.87874 13.7858 1.87885 13.4008V7.53857C1.87971 6.82479 2.14055 6.13577 2.61258 5.60035C3.08462 5.06493 3.73552 4.71979 4.44356 4.62947V10.4697C4.44356 12.6901 6.25352 14.5 8.47389 14.5ZM14.7025 4.79064H16.256C16.211 4.7246 16.1594 4.66323 16.1021 4.60745L13.6034 2.10855C13.5494 2.0515 13.4877 2.00225 13.4202 1.96222V3.50828C13.4218 3.84789 13.5574 4.17312 13.7975 4.41326C14.0377 4.6534 14.3629 4.78902 14.7025 4.79064ZM14.7025 5.88981C14.0713 5.8886 13.4662 5.63729 13.0199 5.19093C12.5735 4.74457 12.3222 4.13953 12.321 3.50828V1.67634H8.47389C8.08893 1.67623 7.70773 1.75197 7.35206 1.89923C6.99639 2.0465 6.67322 2.2624 6.40102 2.5346C6.12882 2.8068 5.91291 3.12996 5.76564 3.48563C5.61838 3.8413 5.54263 4.2225 5.54273 4.60745V10.4697C5.54263 10.8547 5.61838 11.2359 5.76565 11.5915C5.91292 11.9472 6.12883 12.2704 6.40103 12.5426C6.67323 12.8148 6.9964 13.0307 7.35207 13.1779C7.70774 13.3252 8.08894 13.4009 8.47389 13.4008H13.6034C13.9883 13.4009 14.3695 13.3252 14.7252 13.1779C15.0808 13.0307 15.404 12.8148 15.6762 12.5426C15.9484 12.2704 16.1643 11.9472 16.3116 11.5915C16.4588 11.2359 16.5346 10.8547 16.5345 10.4697V5.88981H14.7025Z" fill="#F2B80C"></path></svg> 