<?xml version="1.0" encoding="UTF-8"?> <svg xmlns="http://www.w3.org/2000/svg" width="33" height="33" viewBox="0 0 33 33" fill="none"><rect x="0.5" y="0.5" width="32" height="32" rx="7.5" fill="#F2B80C" fill-opacity="0.2" stroke="#F2B80C"></rect><path d="M15.6776 9.88433C15.1662 10.0232 14.5086 10.3666 13.8144 10.8415L13.2372 11.2361L13.0034 11.1192C12.8719 11.0534 12.6892 10.9365 12.5942 10.8634C12.3092 10.6369 12.2727 10.7027 12.4773 11.0753C12.9157 11.8864 14.0775 13.0189 15.2538 13.808C15.9626 14.2757 15.9845 14.283 16.759 14.0857C17.044 14.0199 17.1463 14.0272 17.3728 14.1149C17.5262 14.1807 17.7308 14.2318 17.8404 14.2318C18.235 14.2318 19.7694 13.1358 20.5147 12.3175C20.9531 11.8352 21.6472 10.8634 21.6472 10.7246C21.6472 10.6077 21.5376 10.6369 21.3842 10.805C21.2015 11.0023 20.8946 11.163 20.69 11.163C20.595 11.163 20.3393 11.0169 20.1201 10.8415C19.6671 10.4908 19.1118 10.1912 18.5053 9.97932C17.9573 9.78204 16.2329 9.72358 15.6776 9.88433Z" fill="#F0B90B"></path><path d="M12.4553 12.785C12.1704 13.3768 12.0827 13.9175 12.0023 15.6127C11.8708 18.5353 11.7466 19.3683 11.257 20.6835C11.0963 21.1219 10.9867 21.4946 11.0013 21.5165C11.0232 21.5384 11.3447 21.3192 11.7174 21.0342C12.0827 20.742 12.4261 20.5228 12.4699 20.5374C12.5138 20.552 12.7841 20.9392 13.0764 21.3923C13.3614 21.8526 13.6317 22.2398 13.6756 22.2545C13.7121 22.2691 14.0117 22.0426 14.3332 21.7649L14.9177 21.2461L15.0492 21.4215C15.1296 21.5165 15.5241 22.1302 15.9406 22.7878C16.7809 24.1323 16.9343 24.3442 17.0366 24.2857C17.0732 24.2638 17.5116 23.5916 18.0084 22.8025C18.498 22.0133 18.9291 21.3338 18.951 21.2973C18.9802 21.2607 19.2579 21.4653 19.5867 21.7503C19.9082 22.0352 20.2004 22.2691 20.2443 22.2691C20.2881 22.2691 20.5731 21.8745 20.88 21.3923C21.1868 20.91 21.4718 20.5155 21.5083 20.5155C21.5522 20.5155 21.8956 20.7639 22.2755 21.0708C22.6555 21.3776 22.977 21.6188 22.9989 21.6042C23.0135 21.5895 22.882 21.1877 22.7066 20.72C22.1878 19.3464 22.1586 19.1345 21.9394 15.2181C21.8664 13.8225 21.8152 13.5668 21.5229 12.8946L21.333 12.4708L21.1503 12.6388C21.0553 12.7338 20.8726 12.9311 20.7557 13.0846L20.5292 13.3695L20.6608 13.8956C20.785 14.3925 20.785 14.4363 20.6681 14.8016C20.5146 15.2546 20.0251 15.7296 19.5721 15.8465C19.0825 15.9707 18.9071 16.0876 18.8852 16.2849C18.856 16.5479 19.0387 16.7452 19.7401 17.1763C20.0835 17.3882 20.3685 17.5928 20.3831 17.6293C20.3977 17.6732 20.1347 17.8704 19.8059 18.0677C18.6295 18.7765 18.3299 19.2587 17.5116 21.7503C17.2339 22.5759 17.0074 23.2701 16.9928 23.2847C16.9416 23.3505 16.8905 23.2116 16.6859 22.481C16.4009 21.4653 15.7945 19.8798 15.473 19.3099C15.1807 18.7765 14.9104 18.5207 14.2016 18.1043C13.924 17.9362 13.6536 17.7608 13.6171 17.7097C13.5513 17.6366 13.7048 17.5051 14.2455 17.1471L14.9615 16.6794V16.358V16.0291L14.545 15.9049C13.9678 15.7369 13.639 15.5104 13.4344 15.1597C13.1933 14.7359 13.1568 14.4144 13.281 13.9029C13.376 13.4791 13.376 13.4572 13.2079 13.1722C13.1129 13.0115 12.9376 12.785 12.8207 12.6754L12.6015 12.4708L12.4553 12.785Z" fill="#F0B90B"></path><path d="M14.0483 14.3049C14.0483 14.6118 14.2164 14.9186 14.4502 15.0209C14.7425 15.1525 15.4366 15.1378 15.4366 14.999C15.4366 14.8894 14.2822 14.0857 14.1287 14.0857C14.0849 14.0857 14.0483 14.188 14.0483 14.3049Z" fill="#F0B90B"></path><path d="M19.3749 14.2903C19.2288 14.3999 18.9584 14.5753 18.7684 14.6849C18.2789 14.9771 18.3154 15.1086 18.8926 15.1086C19.6014 15.1086 20.0544 14.7433 19.9375 14.2757C19.879 14.0346 19.7183 14.0419 19.3749 14.2903Z" fill="#F0B90B"></path><path d="M16.6202 14.9332C16.1672 15.167 15.9188 15.6638 15.8092 16.5772C15.7507 17.0083 15.6923 17.2129 15.6119 17.264C15.5461 17.3005 15.4073 17.4028 15.3123 17.4832L15.137 17.6293L15.5973 18.1116C16.1088 18.645 16.4156 19.1637 16.7225 20.0259C16.9563 20.6981 16.9856 20.6908 17.3363 19.8067C17.6432 19.0103 17.9939 18.4477 18.4469 17.9874L18.8122 17.6074L18.4907 17.3882L18.1619 17.1617L18.1181 16.5553C18.0231 15.3131 17.3363 14.5751 16.6202 14.9332Z" fill="#F0B90B"></path></svg> 